<?xml version="1.0" encoding="UTF-8" standalone="no"?><!DOCTYPE svg PUBLIC "-//W3C//DTD SVG 1.1//EN" "http://www.w3.org/Graphics/SVG/1.1/DTD/svg11.dtd"><svg width="100%" height="100%" viewBox="0 0 75 75" version="1.1" xmlns="http://www.w3.org/2000/svg" xmlns:xlink="http://www.w3.org/1999/xlink" xml:space="preserve" xmlns:serif="http://www.serif.com/" style="fill-rule:evenodd;clip-rule:evenodd;stroke-linejoin:round;stroke-miterlimit:2;"><rect id="Artboard3" x="-0" y="0" width="75" height="75" style="fill:none;"/><clipPath id="_clip1"><rect x="-0" y="0" width="75" height="75"/></clipPath><g clip-path="url(#_clip1)"><path d="M75,-0l-0,61.873l-18.624,13.127l-56.376,-0l0,-57.029l17.971,-17.971l57.029,-0Z"/><path d="M75,-0l-0,61.873l-18.624,13.127l-56.376,-0l0,-57.029l17.971,-17.971l57.029,-0Zm-5,5l-49.958,0l-15.042,15.042c0,0 0,49.958 0,49.958c0,-0 49.791,-0 49.791,-0l15.209,-10.72l0,-54.28Z" style="fill:#fff;"/></g></svg>