<?xml version="1.0" encoding="UTF-8" standalone="no"?><!DOCTYPE svg PUBLIC "-//W3C//DTD SVG 1.1//EN" "http://www.w3.org/Graphics/SVG/1.1/DTD/svg11.dtd"><svg width="100%" height="100%" viewBox="0 0 184 75" version="1.1" xmlns="http://www.w3.org/2000/svg" xmlns:xlink="http://www.w3.org/1999/xlink" xml:space="preserve" xmlns:serif="http://www.serif.com/" style="fill-rule:evenodd;clip-rule:evenodd;stroke-linejoin:round;stroke-miterlimit:2;"><rect id="Artboard3" x="0" y="0" width="183.551" height="75" style="fill:none;"/><clipPath id="_clip1"><rect x="0" y="0" width="183.551" height="75"/></clipPath><g clip-path="url(#_clip1)"><path d="M-0,49.765l-0,46.008l-53.4,-18.32l27.129,-139.241l290.489,35.327l-53.081,124.688l-25.16,-2.454l-20.497,-20.498l-139.97,0l-25.51,-25.51Zm-9.121,-18.5l18.242,-0l0,14.722l20.167,20.167l139.97,0l20.858,20.858l15.248,1.487l45.71,-107.371c0,0 -270.017,-32.836 -270.017,-32.836l-23.986,123.11c0,0 33.808,11.599 33.808,11.599l-0,-51.736Z" style="fill:#fff;"/></g></svg>