<?xml version="1.0" encoding="UTF-8" standalone="no"?><!DOCTYPE svg PUBLIC "-//W3C//DTD SVG 1.1//EN" "http://www.w3.org/Graphics/SVG/1.1/DTD/svg11.dtd"><svg width="100%" height="100%" viewBox="0 0 5013 349" version="1.1" xmlns="http://www.w3.org/2000/svg" xmlns:xlink="http://www.w3.org/1999/xlink" xml:space="preserve" xmlns:serif="http://www.serif.com/" style="fill-rule:evenodd;clip-rule:evenodd;stroke-linejoin:round;stroke-miterlimit:2;"><rect id="Artboard2" x="0" y="0" width="5012.9" height="348.785" style="fill:none;"/><g><path d="M49.061,322.144l-49.061,-49.061l0,-169.894l68.647,-68.647l4846.89,0l97.365,66.325l-0,115.549l-0,105.728l-4963.84,0Z"/><clipPath id="_clip1"><path d="M49.061,322.144l-49.061,-49.061l0,-169.894l68.647,-68.647l4846.89,0l97.365,66.325l-0,115.549l-0,105.728l-4963.84,0Z"/></clipPath><g clip-path="url(#_clip1)"><path d="M49.061,322.144l-49.061,-49.061l0,-169.894l68.647,-68.647l4846.89,0l97.365,66.325l-0,115.549l-0,105.728l-4963.84,0Z"/><path d="M49.061,322.144l-49.061,-49.061l0,-169.894l68.647,-68.647l4846.89,0l97.365,66.325l-0,221.277l-4963.84,0Zm7.741,-18.687l2633.59,0l1184.34,0c0,0 1119.49,0 1119.49,0l-0,-87.041l-0,-105.668l-84.438,-57.519l-4833.39,0l-57.7,57.7l-0,154.414l38.115,38.114Z" style="fill:#fff;"/><g transform="matrix(1.45022,0,0,1.45022,2511.42,-945.158)"><path d="M-1375.23,807.212l7.089,7.148l-10.763,11.839c-11.989,13.188 -29.591,20.594 -53.42,20.594c-14.117,-0 -26.492,-2.749 -37.187,-7.954c-11.563,-5.627 -20.434,-13.532 -26.755,-23.553c-6.37,-10.099 -9.623,-21.421 -9.623,-34.006c-0,-12.72 3.236,-24.057 9.519,-34.063c6.241,-9.939 14.762,-17.719 25.627,-23.266c10.332,-5.276 21.924,-8.012 34.821,-8.012c12.158,-0 23.238,2.49 33.272,7.324c10.728,5.168 19.26,12.768 25.603,22.791c6.226,9.839 9.551,21.543 9.551,35.226c-0,0.637 -0.165,4.016 -0.547,10.132l-0.988,15.8l-6.199,-0Zm-9.117,-25.932c0,-10.166 -2.313,-18.905 -6.939,-26.216c-4.627,-7.311 -10.852,-12.851 -18.677,-16.62c-7.825,-3.77 -16.478,-5.655 -25.959,-5.655c-10.052,0 -19.105,2.056 -27.158,6.169c-8.053,4.112 -14.393,9.852 -19.02,17.22c-4.626,7.368 -6.939,15.735 -6.939,25.102c-0,9.253 2.342,17.592 7.025,25.017c4.684,7.425 11.309,13.222 19.876,17.391c8.568,4.17 18.506,6.254 29.814,6.254c18.163,0 31.814,-5.026 40.952,-15.078l-20.219,-20.39c-3.312,2.513 -6.368,4.283 -9.167,5.311c-2.798,1.028 -6.254,1.543 -10.366,1.543c-4.798,-0 -8.796,-0.943 -11.994,-2.828c-3.199,-1.884 -5.483,-4.597 -6.854,-8.139l65.111,0c0.343,-5.483 0.514,-8.51 0.514,-9.081Zm-51.232,-22.104c3.998,0 7.311,1.114 9.938,3.342c2.627,2.227 4.341,5.283 5.14,9.167l-30.157,-0c0.8,-3.998 2.513,-7.083 5.141,-9.253c2.627,-2.17 5.94,-3.256 9.938,-3.256Zm215.995,-23.035c4.915,-4.874 10.687,-8.974 17.337,-12.276c10.504,-5.215 22.325,-7.926 35.509,-7.926c13.313,-0 25.19,2.717 35.681,7.926c5.26,2.613 9.964,5.723 14.122,9.32l0,-15.533l65.704,0c4.544,-1.137 9.39,-1.713 14.545,-1.713c8.926,-0 16.938,1.762 24.079,5.089c2.078,0.968 4.058,2.068 5.938,3.302c1.91,-1.17 3.904,-2.23 5.981,-3.18c7.505,-3.433 15.716,-5.211 24.658,-5.211c15.347,-0 27.697,4.763 37.295,13.659l-0,-11.946l64.012,0c4.637,-1.121 9.755,-1.713 15.379,-1.713c11.252,-0 21.596,2.732 31.051,8.124c7.348,4.19 13.567,9.767 18.606,16.78c5.635,-6.95 12.649,-12.592 21.071,-16.892c10.332,-5.276 21.924,-8.012 34.821,-8.012c12.159,-0 23.239,2.49 33.273,7.324c1.741,0.839 3.425,1.742 5.05,2.709l0,-3.179l12.851,-0l0,-26.216l72.092,-0c1.857,-6.2 5.443,-11.594 10.743,-16.188c7.121,-6.172 16.329,-9.685 27.913,-9.685c11.667,-0 20.822,3.412 27.785,9.246c5.538,4.639 9.23,10.177 11.048,16.627l57.188,-0c1.858,-6.2 5.443,-11.594 10.744,-16.188c7.121,-6.172 16.329,-9.685 27.913,-9.685c11.667,-0 20.822,3.412 27.785,9.246c8.215,6.883 12.368,15.743 12.368,26.623c0,3.95 -0.518,7.641 -1.543,11.079l38.174,0l7.726,20.581l8.289,-20.581l72.986,0l-1.299,3.232c8.525,-3.265 17.829,-4.945 27.935,-4.945c12.158,-0 23.238,2.49 33.272,7.324c10.728,5.168 19.26,12.768 25.603,22.791c6.226,9.839 9.551,21.543 9.551,35.226c-0,0.637 -0.165,4.016 -0.547,10.132l-0.988,15.8l-6.199,-0l7.089,7.148l-10.763,11.839c-11.989,13.188 -29.591,20.594 -53.42,20.594c-14.117,-0 -26.492,-2.749 -37.187,-7.954c-11.563,-5.627 -20.434,-13.532 -26.755,-23.553c-1.187,-1.882 -2.267,-3.807 -3.236,-5.775l-14.306,35.568l-62.865,0l-15.458,-38.433l0,38.433l-71.793,0c-5.139,1.111 -10.92,1.714 -17.365,1.714c-18.102,-0 -31.807,-5.069 -41.567,-13.805c-1.399,-1.253 -2.718,-2.584 -3.952,-3.997l-0,16.088l-71.794,0c-5.139,1.111 -10.92,1.714 -17.365,1.714c-18.102,-0 -31.807,-5.069 -41.567,-13.805c-3.069,-2.749 -5.754,-5.879 -8.009,-9.409l-2.381,2.62c-11.989,13.188 -29.592,20.594 -53.42,20.594c-14.118,-0 -26.493,-2.749 -37.188,-7.954c-8.976,-4.368 -16.329,-10.108 -22.127,-17.146c-5.067,7.091 -11.344,12.734 -18.782,16.975c-9.455,5.392 -19.799,8.125 -31.051,8.125c-2.415,-0 -4.737,-0.114 -6.966,-0.337l-0,31.864l-72.425,0l-0,-33.241l-178.2,0l0,-15.681c-4.135,3.591 -8.811,6.709 -14.039,9.341c-10.516,5.294 -22.42,8.054 -35.764,8.054c-13.215,-0 -25.063,-2.754 -35.592,-8.054c-6.582,-3.314 -12.302,-7.399 -17.179,-12.232c-3.629,3.988 -7.915,7.483 -12.864,10.481c-10.542,6.384 -23.18,9.805 -38.029,9.805c-13.392,-0 -25.357,-2.702 -35.941,-7.887c-11.311,-5.539 -20.109,-13.368 -26.495,-23.37c-6.452,-10.105 -9.759,-21.508 -9.759,-34.256c0,-12.779 3.323,-24.168 9.791,-34.22c6.379,-9.915 15.164,-17.701 26.463,-23.235c10.584,-5.184 22.549,-7.886 35.941,-7.886c14.849,-0 27.487,3.42 38.029,9.805c4.915,2.976 9.175,6.444 12.789,10.397Zm1006.38,45.139c0,-10.166 -2.313,-18.905 -6.939,-26.216c-4.627,-7.311 -10.852,-12.851 -18.677,-16.62c-7.825,-3.77 -16.478,-5.655 -25.959,-5.655c-10.052,0 -19.105,2.056 -27.158,6.169c-8.053,4.112 -14.393,9.852 -19.02,17.22c-4.626,7.368 -6.939,15.735 -6.939,25.102c-0,9.253 2.342,17.592 7.025,25.017c4.684,7.425 11.309,13.222 19.876,17.391c8.568,4.17 18.506,6.254 29.814,6.254c18.163,0 31.814,-5.026 40.952,-15.078l-20.219,-20.39c-3.312,2.513 -6.368,4.283 -9.167,5.311c-2.798,1.028 -6.254,1.543 -10.366,1.543c-4.798,-0 -8.796,-0.943 -11.994,-2.828c-3.199,-1.884 -5.483,-4.597 -6.854,-8.139l65.111,0c0.343,-5.483 0.514,-8.51 0.514,-9.081Zm-51.232,-22.104c3.998,0 7.311,1.114 9.938,3.342c2.627,2.227 4.341,5.283 5.14,9.167l-30.157,-0c0.8,-3.998 2.513,-7.083 5.141,-9.253c2.627,-2.17 5.94,-3.256 9.938,-3.256Zm-365.765,-40.186l0,3.803l1.552,-0c-0.596,-1.231 -1.113,-2.499 -1.552,-3.803Zm-345.834,13.799c-6.397,0 -12.28,1.228 -17.649,3.684c-5.368,2.456 -9.938,5.969 -13.707,10.538c-3.199,-4.798 -7.311,-8.367 -12.337,-10.709c-5.026,-2.342 -10.681,-3.513 -16.963,-3.513c-10.738,0 -19.591,3.484 -26.559,10.452l0,-8.738l-36.839,-0l-0,93.726l38.724,-0l-0,-45.75c-0,-5.939 1.114,-10.28 3.341,-13.022c2.228,-2.741 5.169,-4.112 8.824,-4.112c6.968,-0 10.453,5.369 10.453,16.106l-0,46.778l38.724,-0l-0,-45.75c-0,-5.939 1.113,-10.28 3.341,-13.022c2.227,-2.741 5.169,-4.112 8.824,-4.112c6.968,-0 10.452,5.369 10.452,16.106l0,46.778l38.724,-0l0,-53.46c0,-14.05 -3.398,-24.56 -10.195,-31.528c-6.796,-6.968 -15.849,-10.452 -27.158,-10.452Zm116.686,0c-11.537,0 -20.104,3.142 -25.701,9.424l-0,-7.71l-36.84,-0l0,126.967l38.724,-0l0,-39.581c5.484,5.369 13.423,8.053 23.817,8.053c8.225,0 15.793,-1.97 22.704,-5.911c6.911,-3.941 12.394,-9.596 16.449,-16.963c4.055,-7.368 6.083,-15.907 6.083,-25.617c-0,-9.709 -2.028,-18.276 -6.083,-25.701c-4.055,-7.425 -9.538,-13.108 -16.449,-17.049c-6.911,-3.941 -14.479,-5.912 -22.704,-5.912Zm-9.252,66.996c-4.455,0 -8.111,-1.599 -10.966,-4.797c-2.856,-3.199 -4.284,-7.711 -4.284,-13.537c0,-5.825 1.428,-10.366 4.284,-13.622c2.855,-3.255 6.511,-4.883 10.966,-4.883c4.455,0 8.11,1.628 10.966,4.883c2.856,3.256 4.284,7.797 4.284,13.622c-0,5.826 -1.428,10.338 -4.284,13.537c-2.856,3.198 -6.511,4.797 -10.966,4.797Zm166.377,-18.505c-0,-10.166 -2.314,-18.905 -6.94,-26.216c-4.626,-7.311 -10.852,-12.851 -18.677,-16.62c-7.824,-3.77 -16.477,-5.655 -25.959,-5.655c-10.052,0 -19.105,2.056 -27.158,6.169c-8.053,4.112 -14.393,9.852 -19.019,17.22c-4.627,7.368 -6.94,15.735 -6.94,25.102c0,9.253 2.342,17.592 7.025,25.017c4.684,7.425 11.309,13.222 19.877,17.391c8.567,4.17 18.505,6.254 29.814,6.254c18.162,0 31.813,-5.026 40.951,-15.078l-20.218,-20.39c-3.313,2.513 -6.369,4.283 -9.167,5.311c-2.799,1.028 -6.255,1.543 -10.367,1.543c-4.798,-0 -8.796,-0.943 -11.994,-2.828c-3.199,-1.884 -5.483,-4.597 -6.854,-8.139l65.111,0c0.343,-5.483 0.515,-8.51 0.515,-9.081Zm-51.233,-22.104c3.998,0 7.311,1.114 9.938,3.342c2.628,2.227 4.341,5.283 5.141,9.167l-30.157,-0c0.799,-3.998 2.513,-7.083 5.14,-9.253c2.627,-2.17 5.94,-3.256 9.938,-3.256Zm132.45,65.797l-9.252,-26.901c-2.513,1.713 -5.426,2.57 -8.739,2.57c-2.399,0 -4.341,-0.799 -5.826,-2.399c-1.485,-1.599 -2.227,-3.826 -2.227,-6.682l-0,-23.646l19.191,0l-0,-28.272l-19.191,0l-0,-26.216l-38.724,0l-0,26.216l-12.851,0l-0,28.272l12.851,0l-0,23.989c-0,12.679 3.541,22.189 10.623,28.529c7.082,6.339 17.192,9.509 30.328,9.509c10.053,0 17.992,-1.656 23.817,-4.969Zm9.767,-90.47l0,93.726l38.724,-0l0,-93.726l-38.724,-0Zm19.362,-7.54c7.082,0 12.737,-1.913 16.963,-5.74c4.227,-3.826 6.34,-8.71 6.34,-14.65c0,-5.597 -2.113,-10.166 -6.34,-13.707c-4.226,-3.541 -9.881,-5.312 -16.963,-5.312c-6.968,-0 -12.594,1.856 -16.877,5.569c-4.284,3.712 -6.426,8.424 -6.426,14.136c0,5.711 2.142,10.423 6.426,14.136c4.283,3.712 9.909,5.568 16.877,5.568Zm105.549,98.01l-9.253,-26.901c-2.513,1.713 -5.425,2.57 -8.738,2.57c-2.399,0 -4.341,-0.799 -5.826,-2.399c-1.485,-1.599 -2.227,-3.826 -2.227,-6.682l-0,-23.646l19.19,0l0,-28.272l-19.19,0l-0,-26.216l-38.725,0l0,26.216l-12.85,0l-0,28.272l12.85,0l0,23.989c0,12.679 3.542,22.189 10.624,28.529c7.082,6.339 17.192,9.509 30.328,9.509c10.052,0 17.991,-1.656 23.817,-4.969Zm9.767,-90.47l-0,93.726l38.724,-0l-0,-93.726l-38.724,-0Zm19.362,-7.54c7.082,0 12.737,-1.913 16.963,-5.74c4.227,-3.826 6.34,-8.71 6.34,-14.65c-0,-5.597 -2.113,-10.166 -6.34,-13.707c-4.226,-3.541 -9.881,-5.312 -16.963,-5.312c-6.968,-0 -12.594,1.856 -16.878,5.569c-4.283,3.712 -6.425,8.424 -6.425,14.136c-0,5.711 2.142,10.423 6.425,14.136c4.284,3.712 9.91,5.568 16.878,5.568Zm140.846,7.54l-36.668,-0l-20.219,50.204l-18.848,-50.204l-39.752,-0l37.696,93.726l40.095,-0l37.696,-93.726Zm-850.389,95.439c10.509,0 19.905,-2.084 28.187,-6.254c8.281,-4.169 14.735,-9.938 19.362,-17.306c4.626,-7.368 6.939,-15.735 6.939,-25.102c0,-9.367 -2.313,-17.734 -6.939,-25.102c-4.627,-7.368 -11.081,-13.108 -19.362,-17.22c-8.282,-4.113 -17.678,-6.169 -28.187,-6.169c-10.395,0 -19.733,2.056 -28.015,6.169c-8.281,4.112 -14.764,9.852 -19.447,17.22c-4.684,7.368 -7.026,15.735 -7.026,25.102c0,9.367 2.342,17.734 7.026,25.102c4.683,7.368 11.166,13.137 19.447,17.306c8.282,4.17 17.62,6.254 28.015,6.254Zm0,-30.157c-4.455,0 -8.11,-1.627 -10.966,-4.883c-2.856,-3.256 -4.284,-7.796 -4.284,-13.622c0,-5.826 1.428,-10.338 4.284,-13.536c2.856,-3.199 6.511,-4.798 10.966,-4.798c4.455,0 8.111,1.599 10.966,4.798c2.856,3.198 4.284,7.71 4.284,13.536c0,5.826 -1.428,10.366 -4.284,13.622c-2.855,3.256 -6.511,4.883 -10.966,4.883Zm527.337,-15.871c-0.12,0.07 -0.232,0.158 -0.346,0.236l0.346,-0.236Zm-631.001,46.028c11.423,0 21.19,-2.456 29.3,-7.368c8.111,-4.912 13.708,-11.708 16.792,-20.39l-29.985,-14.735c-3.656,8.224 -9.082,12.336 -16.278,12.336c-4.569,0 -8.368,-1.599 -11.395,-4.797c-3.027,-3.199 -4.54,-7.768 -4.54,-13.708c-0,-5.826 1.513,-10.338 4.54,-13.536c3.027,-3.199 6.826,-4.798 11.395,-4.798c7.196,0 12.622,4.112 16.278,12.337l29.985,-14.736c-3.084,-8.681 -8.681,-15.478 -16.792,-20.39c-8.11,-4.912 -17.877,-7.368 -29.3,-7.368c-10.623,0 -20.133,2.056 -28.529,6.169c-8.396,4.112 -14.964,9.852 -19.705,17.22c-4.74,7.368 -7.111,15.735 -7.111,25.102c0,9.367 2.371,17.763 7.111,25.188c4.741,7.425 11.309,13.194 19.705,17.306c8.396,4.112 17.906,6.168 28.529,6.168Zm774.884,-110.952l-0,3.803l1.552,-0c-0.596,-1.231 -1.113,-2.499 -1.552,-3.803Zm-9.205,64.924c-0.121,0.07 -0.232,0.158 -0.346,0.236l0.346,-0.236Z"/><path d="M-101.991,721.401c4.471,-1.124 9.431,-1.713 14.904,-1.713c10.578,-0 20.304,2.563 29.193,7.632c5.796,3.305 10.84,7.534 15.106,12.709l0,-18.628l63.042,0l0,0.423c5.184,-1.407 10.92,-2.136 17.227,-2.136l13.101,-0l0,15.766c3.772,-3.158 7.999,-5.903 12.686,-8.231c10.009,-4.97 21.278,-7.535 33.841,-7.535c12.689,-0 24.014,2.57 34.013,7.535c9.625,4.779 17.279,11.322 23.023,19.559c5.316,-8.603 12.374,-15.25 21.152,-19.966c8.828,-4.742 18.346,-7.128 28.561,-7.128c5.383,-0 10.289,0.584 14.735,1.713l116.937,0l0,0.423c5.184,-1.407 10.92,-2.136 17.227,-2.136l13.102,-0l-0,7.479c4.01,-1.661 8.384,-3.089 13.129,-4.266c8.652,-2.147 17.272,-3.213 25.858,-3.213c20.224,-0 35.5,5.105 46.174,14.164c3.137,2.662 5.892,5.701 8.235,9.129l-0,-21.58l62.46,0c4.375,-1.138 9.053,-1.713 14.039,-1.713c8.338,-0 15.826,1.63 22.497,4.738c2.655,1.237 5.135,2.709 7.438,4.419c2.392,-1.626 4.932,-3.055 7.623,-4.286c7.03,-3.216 14.723,-4.871 23.099,-4.871c15.262,-0 27.364,5.001 36.537,14.405c1.632,1.674 3.138,3.497 4.507,5.473l-0,-18.165l62.459,0c4.375,-1.138 9.053,-1.713 14.04,-1.713c8.338,-0 15.826,1.63 22.496,4.738c2.655,1.237 5.136,2.709 7.439,4.419c2.391,-1.626 4.932,-3.055 7.623,-4.286c7.029,-3.216 14.722,-4.871 23.098,-4.871c15.263,-0 27.364,5.001 36.537,14.405c4.149,4.253 7.474,9.472 9.833,15.705c0.12,-0.196 0.241,-0.392 0.364,-0.587c5.882,-9.368 13.918,-16.693 24.157,-21.922c9.825,-5.017 20.852,-7.601 33.116,-7.601c11.563,-0 22.103,2.355 31.645,6.952c7.461,3.594 13.791,8.439 18.994,14.533l0,-19.772l63.043,0l-0,0.423c5.183,-1.407 10.919,-2.136 17.226,-2.136l13.102,-0l-0,10.469c3.093,-1.979 6.573,-3.746 10.457,-5.275c8.591,-3.382 18.888,-5.194 30.929,-5.194c7.928,-0 15.696,0.738 23.305,2.208c8.209,1.587 15.19,3.963 20.985,6.998l10.624,5.565l-13.902,33.41c1.333,1.086 2.624,2.262 3.871,3.527c6.213,6.3 9.856,15.122 9.856,26.847c-0,8.723 -2.69,16.692 -8.163,23.876c-4.946,6.49 -12.214,11.88 -22.104,15.743c-8.629,3.371 -19.057,5.182 -31.326,5.182c-8.95,-0 -17.773,-0.96 -26.467,-2.878c-9.299,-2.051 -16.783,-4.819 -22.526,-8.101l-10.038,-5.736l14.492,-34.825c-3.155,-3.248 -5.635,-7.157 -7.295,-11.778c-1.536,-0.165 -2.992,-0.252 -4.367,-0.252c-2.39,0 -4.369,-0.078 -5.564,1.138c-1.267,1.289 -1.211,3.403 -1.211,5.98l0,54.738l-64.927,0l0,-14.042c-11.187,10.198 -26.752,15.756 -47.041,15.756c-13.492,-0 -25.325,-2.601 -35.547,-7.575c-8.845,-4.305 -16.026,-10.015 -21.603,-17.064l0,22.925l-417.652,0c-4.29,1.13 -9.08,1.714 -14.39,1.714c-9.716,-0 -17.94,-1.85 -24.741,-5.213c-7.597,-3.757 -13.274,-8.942 -17.198,-15.37c-3.924,-6.428 -5.945,-13.633 -5.945,-21.648c-0,-8.084 1.854,-15.012 5.475,-20.827c-2.308,-0.334 -4.449,-0.512 -6.424,-0.512c-2.391,0 -4.369,-0.078 -5.564,1.138c-1.267,1.289 -1.211,3.403 -1.211,5.98l0,54.738l-61.924,0c-3.183,7.108 -7.57,13.129 -13.053,18.105c-11.981,10.873 -28.878,16.85 -51.041,16.85c-10.488,-0 -20.27,-1.141 -29.351,-3.379c-9.719,-2.396 -17.971,-5.923 -24.815,-10.44l-9.647,-6.367l17.023,-34.494c-3.058,-2.728 -5.808,-5.807 -8.249,-9.241c-0.198,0.33 -0.4,0.658 -0.605,0.985c-5.879,9.364 -14.04,16.742 -24.566,22.041c-10.018,5.044 -21.365,7.654 -34.078,7.654c-12.587,-0 -23.877,-2.605 -33.906,-7.654c-10.498,-5.285 -18.677,-12.64 -24.613,-21.979c-5.999,-9.437 -9.07,-20.134 -9.07,-32.131c-0,-0.603 0.008,-1.203 0.023,-1.8c-0.211,-0.004 -0.421,-0.006 -0.629,-0.006c-2.391,0 -4.369,-0.078 -5.564,1.138c-1.267,1.289 -1.211,3.403 -1.211,5.98l0,54.738l-64.927,0l0,-18.593c-4.265,5.15 -9.307,9.368 -15.106,12.675c-8.889,5.069 -18.615,7.632 -29.193,7.632c-3.822,-0 -7.391,-0.301 -10.716,-0.88l0,32.407l-64.927,0l0,-153.17l60.739,0Zm14.904,11.388c-11.538,0 -20.105,3.142 -25.702,9.424l-0,-7.71l-36.84,-0l0,126.967l38.725,-0l-0,-39.581c5.483,5.369 13.422,8.053 23.817,8.053c8.224,0 15.792,-1.97 22.703,-5.911c6.911,-3.941 12.394,-9.596 16.449,-16.963c4.055,-7.368 6.083,-15.907 6.083,-25.617c-0,-9.709 -2.028,-18.276 -6.083,-25.701c-4.055,-7.425 -9.538,-13.108 -16.449,-17.049c-6.911,-3.941 -14.479,-5.912 -22.703,-5.912Zm-9.253,66.996c-4.455,0 -8.11,-1.599 -10.966,-4.797c-2.856,-3.199 -4.284,-7.711 -4.284,-13.537c0,-5.825 1.428,-10.366 4.284,-13.622c2.856,-3.255 6.511,-4.883 10.966,-4.883c4.455,0 8.11,1.628 10.966,4.883c2.856,3.256 4.284,7.797 4.284,13.622c-0,5.826 -1.428,10.338 -4.284,13.537c-2.856,3.198 -6.511,4.797 -10.966,4.797Zm0,-13.101c0.471,-0 0.891,-0.084 1.193,-0.422c0.987,-1.105 0.955,-2.798 0.955,-4.811c0,-2.075 -0.013,-3.822 -1.031,-4.982c-0.284,-0.324 -0.674,-0.421 -1.117,-0.421c-0.443,-0 -0.833,0.097 -1.117,0.421c-1.018,1.16 -1.031,2.907 -1.031,4.982c-0,2.013 -0.032,3.706 0.955,4.811c0.302,0.338 0.722,0.422 1.193,0.422Zm364.795,-52.181l-36.839,-0l-0,10.623c-5.712,-8.224 -14.964,-12.337 -27.758,-12.337c-7.996,0 -15.45,1.856 -22.361,5.569c-6.911,3.712 -12.422,8.996 -16.535,15.849c-4.112,6.854 -6.168,14.736 -6.168,23.646c-0,8.91 2.056,16.821 6.168,23.732c4.113,6.91 9.624,12.222 16.535,15.935c6.911,3.712 14.365,5.568 22.361,5.568c11.423,0 20.047,-3.312 25.873,-9.938l-0,1.714c-0,6.397 -1.771,11.252 -5.312,14.564c-3.541,3.313 -9.195,4.969 -16.963,4.969c-5.14,0 -10.509,-0.856 -16.107,-2.57c-5.597,-1.713 -10.223,-3.941 -13.879,-6.682l-13.022,26.387c5.712,3.769 12.623,6.654 20.733,8.653c8.11,1.999 16.849,2.998 26.216,2.998c18.277,0 32.356,-4.483 42.237,-13.45c9.881,-8.967 14.821,-22.361 14.821,-40.181l0,-75.049Zm-54.317,58.429c-4.569,-0 -8.395,-1.4 -11.48,-4.198c-3.084,-2.799 -4.626,-6.426 -4.626,-10.881c-0,-4.455 1.514,-8.053 4.541,-10.795c3.027,-2.741 6.882,-4.112 11.565,-4.112c4.57,0 8.368,1.371 11.395,4.112c3.027,2.742 4.541,6.34 4.541,10.795c-0,4.455 -1.514,8.082 -4.541,10.881c-3.027,2.798 -6.825,4.198 -11.395,4.198Zm0,-13.102c0.979,0 1.853,-0.117 2.501,-0.716c0.335,-0.31 0.333,-0.768 0.333,-1.261c0,-0.422 0.053,-0.824 -0.234,-1.084c-0.674,-0.61 -1.582,-0.721 -2.6,-0.721c-1.092,-0 -2.064,0.082 -2.771,0.721c-0.286,0.26 -0.234,0.662 -0.234,1.084c0,0.461 0.01,0.889 0.329,1.178c0.705,0.64 1.632,0.799 2.676,0.799Zm-117.029,50.112c10.51,0 19.905,-2.084 28.187,-6.254c8.281,-4.169 14.735,-9.938 19.362,-17.306c4.626,-7.368 6.939,-15.735 6.939,-25.102c0,-9.367 -2.313,-17.734 -6.939,-25.102c-4.627,-7.368 -11.081,-13.108 -19.362,-17.22c-8.282,-4.113 -17.677,-6.169 -28.187,-6.169c-10.395,0 -19.733,2.056 -28.015,6.169c-8.281,4.112 -14.764,9.852 -19.447,17.22c-4.684,7.368 -7.026,15.735 -7.026,25.102c0,9.367 2.342,17.734 7.026,25.102c4.683,7.368 11.166,13.137 19.447,17.306c8.282,4.17 17.62,6.254 28.015,6.254Zm0,-30.157c-4.455,0 -8.11,-1.627 -10.966,-4.883c-2.856,-3.256 -4.283,-7.796 -4.283,-13.622c-0,-5.826 1.427,-10.338 4.283,-13.536c2.856,-3.199 6.511,-4.798 10.966,-4.798c4.455,0 8.111,1.599 10.966,4.798c2.856,3.198 4.284,7.71 4.284,13.536c0,5.826 -1.428,10.366 -4.284,13.622c-2.855,3.256 -6.511,4.883 -10.966,4.883Zm0,-13.101c0.443,-0 0.833,-0.098 1.117,-0.422c1.018,-1.16 1.032,-2.906 1.032,-4.982c-0,-2.012 0.031,-3.706 -0.955,-4.81c-0.302,-0.339 -0.723,-0.422 -1.194,-0.422c-0.471,-0 -0.891,0.083 -1.193,0.422c-0.986,1.104 -0.955,2.798 -0.955,4.81c0,2.076 0.014,3.822 1.031,4.982c0.284,0.324 0.674,0.422 1.117,0.422Zm-89.956,-42.072l-0,-10.109l-36.84,-0l0,93.726l38.725,-0l-0,-41.637c-0,-13.479 6.625,-20.219 19.876,-20.219c2.627,-0 5.483,0.228 8.567,0.685l0,-34.269c-13.365,0 -23.474,3.941 -30.328,11.823Zm923.039,36.668c0,-10.166 -2.313,-18.905 -6.939,-26.216c-4.627,-7.311 -10.852,-12.851 -18.677,-16.62c-7.825,-3.77 -16.478,-5.655 -25.959,-5.655c-10.052,0 -19.105,2.056 -27.158,6.169c-8.053,4.112 -14.393,9.852 -19.02,17.22c-4.626,7.368 -6.939,15.735 -6.939,25.102c-0,9.253 2.342,17.592 7.025,25.017c4.684,7.425 11.309,13.222 19.876,17.391c8.568,4.17 18.506,6.254 29.814,6.254c18.163,0 31.814,-5.026 40.952,-15.078l-20.219,-20.39c-3.312,2.513 -6.368,4.283 -9.167,5.311c-2.798,1.028 -6.254,1.543 -10.366,1.543c-4.798,-0 -8.796,-0.943 -11.994,-2.828c-3.199,-1.884 -5.483,-4.597 -6.854,-8.139l65.111,0c0.343,-5.483 0.514,-8.51 0.514,-9.081Zm-51.232,-22.104c3.998,0 7.311,1.114 9.938,3.342c2.627,2.227 4.341,5.283 5.14,9.167l-30.157,-0c0.8,-3.998 2.514,-7.083 5.141,-9.253c2.627,-2.17 5.94,-3.256 9.938,-3.256Zm-474.114,-26.387c-7.539,0 -15.107,0.943 -22.703,2.827c-7.596,1.885 -14.079,4.484 -19.448,7.797l12.337,25.53c3.084,-2.284 6.797,-4.084 11.138,-5.397c4.34,-1.314 8.624,-1.971 12.85,-1.971c10.51,0 16.393,3.656 17.649,10.966l-15.592,0c-14.393,0 -25.131,2.399 -32.213,7.197c-7.083,4.798 -10.624,11.823 -10.624,21.075c0,5.484 1.342,10.424 4.027,14.822c2.684,4.398 6.625,7.882 11.823,10.452c5.197,2.57 11.508,3.855 18.933,3.855c13.251,0 22.104,-4.683 26.559,-14.05l-0,12.337l35.983,-0l-0,-50.376c-0,-15.307 -4.341,-26.644 -13.023,-34.012c-8.681,-7.368 -21.247,-11.052 -37.696,-11.052Zm-0.171,73.85c-2.856,0 -5.112,-0.714 -6.768,-2.142c-1.657,-1.427 -2.485,-3.227 -2.485,-5.397c0,-5.255 3.941,-7.882 11.823,-7.882l9.595,0l0,6.511c-1.028,2.97 -2.627,5.198 -4.797,6.683c-2.171,1.485 -4.627,2.227 -7.368,2.227Zm-82.246,-62.027l-0,-10.109l-36.839,-0l-0,93.726l38.724,-0l-0,-41.637c-0,-13.479 6.625,-20.219 19.876,-20.219c2.627,-0 5.483,0.228 8.567,0.685l0,-34.269c-13.365,0 -23.474,3.941 -30.328,11.823Zm273.982,-11.823c-6.397,0 -12.28,1.228 -17.649,3.684c-5.369,2.456 -9.938,5.969 -13.708,10.538c-3.198,-4.798 -7.31,-8.367 -12.336,-10.709c-5.027,-2.342 -10.681,-3.513 -16.964,-3.513c-10.737,0 -19.59,3.484 -26.558,10.452l-0,-8.738l-36.84,-0l0,93.726l38.725,-0l-0,-45.75c-0,-5.939 1.113,-10.28 3.341,-13.022c2.227,-2.741 5.169,-4.112 8.824,-4.112c6.968,-0 10.452,5.369 10.452,16.106l0,46.778l38.724,-0l0,-45.75c0,-5.939 1.114,-10.28 3.342,-13.022c2.227,-2.741 5.169,-4.112 8.824,-4.112c6.968,-0 10.452,5.369 10.452,16.106l-0,46.778l38.724,-0l0,-53.46c0,-14.05 -3.398,-24.56 -10.195,-31.528c-6.797,-6.968 -15.849,-10.452 -27.158,-10.452Zm178.199,0c-6.397,0 -12.279,1.228 -17.648,3.684c-5.369,2.456 -9.938,5.969 -13.708,10.538c-3.198,-4.798 -7.311,-8.367 -12.337,-10.709c-5.026,-2.342 -10.68,-3.513 -16.963,-3.513c-10.738,0 -19.591,3.484 -26.559,10.452l0,-8.738l-36.839,-0l0,93.726l38.724,-0l0,-45.75c0,-5.939 1.114,-10.28 3.341,-13.022c2.228,-2.741 5.169,-4.112 8.825,-4.112c6.968,-0 10.452,5.369 10.452,16.106l-0,46.778l38.724,-0l-0,-45.75c-0,-5.939 1.114,-10.28 3.341,-13.022c2.228,-2.741 5.169,-4.112 8.824,-4.112c6.969,-0 10.453,5.369 10.453,16.106l-0,46.778l38.724,-0l-0,-53.46c-0,-14.05 -3.399,-24.56 -10.195,-31.528c-6.797,-6.968 -15.85,-10.452 -27.159,-10.452Zm204.587,11.823l0,-10.109l-36.839,-0l-0,93.726l38.724,-0l-0,-41.637c-0,-13.479 6.625,-20.219 19.876,-20.219c2.627,-0 5.483,0.228 8.567,0.685l0,-34.269c-13.365,0 -23.474,3.941 -30.328,11.823Zm77.962,85.33c10.395,0 19.248,-1.428 26.559,-4.283c7.311,-2.856 12.794,-6.683 16.449,-11.481c3.656,-4.797 5.483,-10.109 5.483,-15.935c0,-7.653 -2.027,-13.536 -6.083,-17.648c-4.055,-4.113 -8.738,-6.911 -14.05,-8.396c-5.312,-1.485 -11.794,-2.685 -19.448,-3.599c-4.912,-0.571 -8.51,-1.17 -10.794,-1.799c-2.285,-0.628 -3.427,-1.685 -3.427,-3.17c-0,-2.97 4.226,-4.455 12.679,-4.455c9.824,0 18.848,2.285 27.073,6.854l10.623,-25.53c-4.797,-2.513 -10.595,-4.427 -17.391,-5.74c-6.797,-1.314 -13.736,-1.971 -20.819,-1.971c-10.166,0 -18.876,1.428 -26.13,4.284c-7.254,2.856 -12.708,6.682 -16.363,11.48c-3.656,4.798 -5.484,10.224 -5.484,16.278c0,7.653 2.028,13.536 6.083,17.648c4.055,4.113 8.767,6.883 14.136,8.311c5.369,1.428 11.88,2.598 19.534,3.512c5.026,0.571 8.653,1.143 10.88,1.714c2.228,0.571 3.341,1.599 3.341,3.084c0,1.485 -0.885,2.599 -2.656,3.341c-1.77,0.743 -4.883,1.114 -9.338,1.114c-5.597,0 -11.366,-0.742 -17.306,-2.227c-5.94,-1.485 -11.08,-3.542 -15.421,-6.169l-10.623,25.531c4.797,2.741 11.08,4.969 18.848,6.682c7.767,1.714 15.649,2.57 23.645,2.57Z"/><path d="M1338.69,717.652c4.662,-1.133 9.568,-1.713 14.722,-1.713c15.765,-0 28.456,4.89 38.323,14.01l0,-6.056c-2.625,-4.933 -3.941,-10.477 -3.941,-16.634c0,-10.861 4.095,-19.811 12.24,-26.87c7.122,-6.172 16.329,-9.685 27.914,-9.685c11.667,-0 20.822,3.412 27.784,9.246c8.216,6.883 12.369,15.743 12.369,26.623c-0,6.324 -1.328,11.986 -3.941,17.006l-0,9.738c4.209,-3.654 8.971,-6.808 14.294,-9.452c10.504,-5.215 22.325,-7.926 35.509,-7.926c13.313,-0 25.19,2.717 35.681,7.926c5.26,2.613 9.964,5.723 14.122,9.32l0,-15.533l67.239,0c4.663,-1.133 9.569,-1.713 14.723,-1.713c16.514,-0 29.654,5.365 39.71,15.339c9.759,9.679 15.522,23.973 15.522,43.491l-0,70.31l-137.194,0l0,-15.681c-4.135,3.591 -8.811,6.709 -14.039,9.341c-10.516,5.294 -22.42,8.054 -35.764,8.054c-13.215,-0 -25.064,-2.754 -35.592,-8.054c-5.291,-2.664 -10.024,-5.826 -14.211,-9.474l-0,15.814l-242.277,0c-4.523,1.137 -9.227,1.714 -14.115,1.714c-16.907,-0 -30.335,-5.54 -40.576,-15.863c-9.866,-9.944 -15.684,-24.637 -15.684,-44.681l0,-68.597l187.182,0Zm307.038,15.137c-5.597,0 -10.795,0.914 -15.592,2.742c-4.798,1.827 -9.025,4.569 -12.68,8.224l-0,-9.252l-36.839,-0l-0,93.726l38.724,-0l-0,-44.036c-0,-6.511 1.342,-11.28 4.026,-14.307c2.685,-3.028 6.197,-4.541 10.538,-4.541c7.654,-0 11.48,5.369 11.48,16.106l0,46.778l38.724,-0l0,-53.46c0,-14.05 -3.512,-24.56 -10.537,-31.528c-7.026,-6.968 -16.307,-10.452 -27.844,-10.452Zm-292.316,0c-5.597,0 -10.795,0.914 -15.592,2.742c-4.798,1.827 -9.025,4.569 -12.68,8.224l0,-9.252l-36.839,-0l-0,93.726l38.724,-0l-0,-44.036c-0,-6.511 1.342,-11.28 4.027,-14.307c2.684,-3.028 6.197,-4.541 10.537,-4.541c7.654,-0 11.48,5.369 11.48,16.106l0,46.778l38.725,-0l-0,-53.46c-0,-14.05 -3.513,-24.56 -10.538,-31.528c-7.025,-6.968 -16.307,-10.452 -27.844,-10.452Zm74.536,-5.826c7.082,0 12.736,-1.913 16.963,-5.74c4.226,-3.826 6.34,-8.71 6.34,-14.65c-0,-5.597 -2.114,-10.166 -6.34,-13.707c-4.227,-3.541 -9.881,-5.312 -16.963,-5.312c-6.969,-0 -12.594,1.856 -16.878,5.569c-4.284,3.712 -6.425,8.424 -6.425,14.136c-0,5.711 2.141,10.423 6.425,14.136c4.284,3.712 9.909,5.568 16.878,5.568Zm-156.782,7.54l-38.724,-0l0,44.036c0,6.511 -1.256,11.28 -3.77,14.307c-2.513,3.027 -5.654,4.541 -9.424,4.541c-3.998,-0 -7.025,-1.371 -9.081,-4.113c-2.056,-2.741 -3.084,-7.31 -3.084,-13.707l-0,-45.064l-38.724,-0l-0,51.746c-0,14.622 3.598,25.559 10.795,32.813c7.196,7.253 16.734,10.88 28.614,10.88c5.141,0 9.995,-0.885 14.565,-2.656c4.569,-1.77 8.567,-4.426 11.994,-7.967l-0,8.91l36.839,-0l0,-93.726Zm137.419,-0l0,93.726l38.725,-0l-0,-93.726l-38.725,-0Zm105.378,95.439c10.509,0 19.905,-2.084 28.186,-6.254c8.282,-4.169 14.736,-9.938 19.363,-17.306c4.626,-7.368 6.939,-15.735 6.939,-25.102c0,-9.367 -2.313,-17.734 -6.939,-25.102c-4.627,-7.368 -11.081,-13.108 -19.363,-17.22c-8.281,-4.113 -17.677,-6.169 -28.186,-6.169c-10.395,0 -19.733,2.056 -28.015,6.169c-8.282,4.112 -14.764,9.852 -19.448,17.22c-4.683,7.368 -7.025,15.735 -7.025,25.102c0,9.367 2.342,17.734 7.025,25.102c4.684,7.368 11.166,13.137 19.448,17.306c8.282,4.17 17.62,6.254 28.015,6.254Zm0,-30.157c-4.455,0 -8.11,-1.627 -10.966,-4.883c-2.856,-3.256 -4.284,-7.796 -4.284,-13.622c0,-5.826 1.428,-10.338 4.284,-13.536c2.856,-3.199 6.511,-4.798 10.966,-4.798c4.455,0 8.11,1.599 10.966,4.798c2.856,3.198 4.284,7.71 4.284,13.536c-0,5.826 -1.428,10.366 -4.284,13.622c-2.856,3.256 -6.511,4.883 -10.966,4.883Z"/><g transform="matrix(171.346,0,0,171.346,-1693.45,828.229)"><path d="M0.453,-0.019c-0.034,0.019 -0.08,0.029 -0.139,0.029c-0.077,-0 -0.136,-0.019 -0.177,-0.056c-0.041,-0.037 -0.062,-0.092 -0.062,-0.166l-0,-0.14l-0.075,0l-0,-0.165l0.075,0l-0,-0.153l0.226,0l-0,0.153l0.112,0l0,0.165l-0.112,0l-0,0.138c-0,0.017 0.004,0.03 0.013,0.039c0.009,0.009 0.02,0.014 0.034,0.014c0.019,-0 0.036,-0.005 0.051,-0.015l0.054,0.157Z" style="fill:#fff;fill-rule:nonzero;"/></g><g transform="matrix(171.346,0,0,171.346,-1614.63,828.229)"><path d="M0.43,-0.557c0.067,0 0.122,0.02 0.163,0.061c0.041,0.041 0.061,0.102 0.061,0.184l0,0.312l-0.226,0l0,-0.273c0,-0.063 -0.022,-0.094 -0.067,-0.094c-0.025,0 -0.046,0.009 -0.061,0.027c-0.016,0.017 -0.024,0.045 -0.024,0.083l0,0.257l-0.226,0l0,-0.742l0.226,0l0,0.239c0.042,-0.036 0.093,-0.054 0.154,-0.054Z" style="fill:#fff;fill-rule:nonzero;"/></g><g transform="matrix(171.346,0,0,171.346,-1492.64,828.229)"><path d="M0.632,-0.274c0,0.003 -0.001,0.021 -0.003,0.053l-0.38,0c0.008,0.021 0.021,0.037 0.04,0.048c0.019,0.011 0.042,0.016 0.07,0.016c0.024,0 0.044,-0.003 0.061,-0.009c0.016,-0.006 0.034,-0.016 0.053,-0.031l0.118,0.119c-0.053,0.059 -0.133,0.088 -0.239,0.088c-0.066,0 -0.124,-0.012 -0.174,-0.036c-0.05,-0.025 -0.089,-0.059 -0.116,-0.102c-0.027,-0.043 -0.041,-0.092 -0.041,-0.146c0,-0.055 0.014,-0.103 0.041,-0.146c0.027,-0.043 0.064,-0.077 0.111,-0.101c0.047,-0.024 0.099,-0.036 0.158,-0.036c0.055,0 0.106,0.011 0.152,0.033c0.045,0.022 0.082,0.054 0.109,0.097c0.027,0.043 0.04,0.094 0.04,0.153Zm-0.299,-0.129c-0.023,0 -0.043,0.006 -0.058,0.019c-0.015,0.013 -0.025,0.031 -0.03,0.054l0.176,0c-0.005,-0.023 -0.015,-0.04 -0.03,-0.053c-0.015,-0.014 -0.035,-0.02 -0.058,-0.02Z" style="fill:#fff;fill-rule:nonzero;"/></g><g transform="matrix(171.346,0,0,171.346,-1329.34,828.229)"><path d="M0.344,0.01c-0.062,0 -0.118,-0.012 -0.167,-0.036c-0.049,-0.024 -0.087,-0.058 -0.115,-0.101c-0.027,-0.043 -0.041,-0.092 -0.041,-0.147c-0,-0.055 0.014,-0.103 0.041,-0.146c0.028,-0.043 0.066,-0.077 0.115,-0.101c0.049,-0.024 0.105,-0.036 0.167,-0.036c0.067,0 0.124,0.014 0.171,0.043c0.047,0.029 0.08,0.068 0.098,0.119l-0.175,0.086c-0.021,-0.048 -0.053,-0.072 -0.095,-0.072c-0.027,0 -0.049,0.009 -0.066,0.028c-0.018,0.019 -0.027,0.045 -0.027,0.079c0,0.035 0.009,0.061 0.027,0.08c0.017,0.019 0.039,0.028 0.066,0.028c0.042,-0 0.074,-0.024 0.095,-0.072l0.175,0.086c-0.018,0.051 -0.051,0.09 -0.098,0.119c-0.047,0.029 -0.104,0.043 -0.171,0.043Z" style="fill:#fff;fill-rule:nonzero;"/></g><g transform="matrix(171.346,0,0,171.346,-1224.82,828.229)"><path d="M0.339,0.01c-0.061,0 -0.115,-0.012 -0.164,-0.037c-0.048,-0.024 -0.086,-0.058 -0.113,-0.101c-0.027,-0.043 -0.041,-0.091 -0.041,-0.146c-0,-0.055 0.014,-0.103 0.041,-0.146c0.027,-0.043 0.065,-0.077 0.114,-0.101c0.048,-0.024 0.102,-0.036 0.163,-0.036c0.061,0 0.116,0.012 0.165,0.036c0.048,0.024 0.086,0.058 0.113,0.101c0.027,0.043 0.04,0.091 0.04,0.146c0,0.055 -0.013,0.104 -0.04,0.147c-0.027,0.043 -0.065,0.076 -0.113,0.101c-0.049,0.024 -0.104,0.036 -0.165,0.036Zm0,-0.176c0.026,0 0.047,-0.009 0.064,-0.028c0.017,-0.02 0.025,-0.046 0.025,-0.08c0,-0.034 -0.008,-0.06 -0.025,-0.079c-0.017,-0.019 -0.038,-0.028 -0.064,-0.028c-0.026,0 -0.047,0.009 -0.064,0.028c-0.017,0.019 -0.025,0.045 -0.025,0.079c0,0.034 0.008,0.061 0.025,0.08c0.017,0.019 0.038,0.028 0.064,0.028Z" style="fill:#fff;fill-rule:nonzero;"/></g><g transform="matrix(171.346,0,0,171.346,-1108.65,828.229)"><path d="M0.774,-0.557c0.066,0 0.119,0.02 0.158,0.061c0.04,0.041 0.06,0.102 0.06,0.184l0,0.312l-0.226,0l0,-0.273c0,-0.063 -0.02,-0.094 -0.061,-0.094c-0.021,0 -0.039,0.008 -0.052,0.024c-0.013,0.016 -0.019,0.041 -0.019,0.076l0,0.267l-0.226,0l0,-0.273c0,-0.063 -0.02,-0.094 -0.061,-0.094c-0.021,0 -0.039,0.008 -0.052,0.024c-0.013,0.016 -0.019,0.041 -0.019,0.076l0,0.267l-0.226,0l-0,-0.547l0.215,0l0,0.051c0.041,-0.041 0.092,-0.061 0.155,-0.061c0.037,0 0.07,0.007 0.099,0.021c0.029,0.013 0.053,0.034 0.072,0.062c0.022,-0.027 0.049,-0.047 0.08,-0.061c0.031,-0.015 0.066,-0.022 0.103,-0.022Z" style="fill:#fff;fill-rule:nonzero;"/></g><g transform="matrix(171.346,0,0,171.346,-930.451,828.229)"><path d="M0.415,-0.557c0.048,0 0.092,0.012 0.132,0.035c0.041,0.023 0.073,0.056 0.096,0.099c0.024,0.043 0.036,0.093 0.036,0.15c-0,0.057 -0.012,0.107 -0.036,0.15c-0.023,0.043 -0.055,0.076 -0.096,0.099c-0.04,0.023 -0.084,0.034 -0.132,0.034c-0.061,0 -0.107,-0.016 -0.139,-0.047l0,0.231l-0.226,0l-0,-0.741l0.215,-0l0,0.045c0.033,-0.037 0.083,-0.055 0.15,-0.055Zm-0.054,0.391c0.026,-0 0.047,-0.009 0.064,-0.028c0.017,-0.019 0.025,-0.045 0.025,-0.079c-0,-0.034 -0.008,-0.061 -0.025,-0.08c-0.017,-0.019 -0.038,-0.028 -0.064,-0.028c-0.026,-0 -0.047,0.009 -0.064,0.028c-0.017,0.019 -0.025,0.046 -0.025,0.08c0,0.034 0.008,0.06 0.025,0.079c0.017,0.019 0.038,0.028 0.064,0.028Z" style="fill:#fff;fill-rule:nonzero;"/></g><g transform="matrix(171.346,0,0,171.346,-810.509,828.229)"><path d="M0.632,-0.274c0,0.003 -0.001,0.021 -0.003,0.053l-0.38,0c0.008,0.021 0.021,0.037 0.04,0.048c0.019,0.011 0.042,0.016 0.07,0.016c0.024,0 0.044,-0.003 0.061,-0.009c0.016,-0.006 0.034,-0.016 0.053,-0.031l0.118,0.119c-0.053,0.059 -0.133,0.088 -0.239,0.088c-0.066,0 -0.124,-0.012 -0.174,-0.036c-0.05,-0.025 -0.089,-0.059 -0.116,-0.102c-0.027,-0.043 -0.041,-0.092 -0.041,-0.146c0,-0.055 0.014,-0.103 0.041,-0.146c0.027,-0.043 0.064,-0.077 0.111,-0.101c0.047,-0.024 0.099,-0.036 0.158,-0.036c0.055,0 0.106,0.011 0.152,0.033c0.045,0.022 0.082,0.054 0.109,0.097c0.027,0.043 0.04,0.094 0.04,0.153Zm-0.299,-0.129c-0.023,0 -0.043,0.006 -0.058,0.019c-0.015,0.013 -0.025,0.031 -0.03,0.054l0.176,0c-0.005,-0.023 -0.015,-0.04 -0.03,-0.053c-0.015,-0.014 -0.035,-0.02 -0.058,-0.02Z" style="fill:#fff;fill-rule:nonzero;"/></g><g transform="matrix(171.346,0,0,171.346,-698.62,828.229)"><path d="M0.453,-0.019c-0.034,0.019 -0.08,0.029 -0.139,0.029c-0.077,-0 -0.136,-0.019 -0.177,-0.056c-0.041,-0.037 -0.062,-0.092 -0.062,-0.166l-0,-0.14l-0.075,0l-0,-0.165l0.075,0l-0,-0.153l0.226,0l-0,0.153l0.112,0l0,0.165l-0.112,0l-0,0.138c-0,0.017 0.004,0.03 0.013,0.039c0.009,0.009 0.02,0.014 0.034,0.014c0.019,-0 0.036,-0.005 0.051,-0.015l0.054,0.157Z" style="fill:#fff;fill-rule:nonzero;"/></g><g transform="matrix(171.346,0,0,171.346,-619.801,828.229)"><path d="M0.05,-0.547l0.226,0l0,0.547l-0.226,-0l-0,-0.547Zm0.113,-0.044c-0.041,0 -0.074,-0.011 -0.099,-0.032c-0.025,-0.022 -0.037,-0.05 -0.037,-0.083c-0,-0.033 0.012,-0.061 0.037,-0.082c0.025,-0.022 0.058,-0.033 0.099,-0.033c0.041,0 0.074,0.01 0.099,0.031c0.025,0.021 0.037,0.047 0.037,0.08c0,0.035 -0.012,0.063 -0.037,0.086c-0.025,0.022 -0.058,0.033 -0.099,0.033Z" style="fill:#fff;fill-rule:nonzero;"/></g><g transform="matrix(171.346,0,0,171.346,-563.942,828.229)"><path d="M0.453,-0.019c-0.034,0.019 -0.08,0.029 -0.139,0.029c-0.077,-0 -0.136,-0.019 -0.177,-0.056c-0.041,-0.037 -0.062,-0.092 -0.062,-0.166l-0,-0.14l-0.075,0l-0,-0.165l0.075,0l-0,-0.153l0.226,0l-0,0.153l0.112,0l0,0.165l-0.112,0l-0,0.138c-0,0.017 0.004,0.03 0.013,0.039c0.009,0.009 0.02,0.014 0.034,0.014c0.019,-0 0.036,-0.005 0.051,-0.015l0.054,0.157Z" style="fill:#fff;fill-rule:nonzero;"/></g><g transform="matrix(171.346,0,0,171.346,-485.123,828.229)"><path d="M0.05,-0.547l0.226,0l0,0.547l-0.226,-0l-0,-0.547Zm0.113,-0.044c-0.041,0 -0.074,-0.011 -0.099,-0.032c-0.025,-0.022 -0.037,-0.05 -0.037,-0.083c-0,-0.033 0.012,-0.061 0.037,-0.082c0.025,-0.022 0.058,-0.033 0.099,-0.033c0.041,0 0.074,0.01 0.099,0.031c0.025,0.021 0.037,0.047 0.037,0.08c0,0.035 -0.012,0.063 -0.037,0.086c-0.025,0.022 -0.058,0.033 -0.099,0.033Z" style="fill:#fff;fill-rule:nonzero;"/></g><g transform="matrix(171.346,0,0,171.346,-429.265,828.229)"><path d="M0.659,-0.547l-0.22,0.547l-0.234,-0l-0.22,-0.547l0.232,0l0.11,0.293l0.118,-0.293l0.214,0Z" style="fill:#fff;fill-rule:nonzero;"/></g><g transform="matrix(171.346,0,0,171.346,-321.488,828.229)"><path d="M0.632,-0.274c0,0.003 -0.001,0.021 -0.003,0.053l-0.38,0c0.008,0.021 0.021,0.037 0.04,0.048c0.019,0.011 0.042,0.016 0.07,0.016c0.024,0 0.044,-0.003 0.061,-0.009c0.016,-0.006 0.034,-0.016 0.053,-0.031l0.118,0.119c-0.053,0.059 -0.133,0.088 -0.239,0.088c-0.066,0 -0.124,-0.012 -0.174,-0.036c-0.05,-0.025 -0.089,-0.059 -0.116,-0.102c-0.027,-0.043 -0.041,-0.092 -0.041,-0.146c0,-0.055 0.014,-0.103 0.041,-0.146c0.027,-0.043 0.064,-0.077 0.111,-0.101c0.047,-0.024 0.099,-0.036 0.158,-0.036c0.055,0 0.106,0.011 0.152,0.033c0.045,0.022 0.082,0.054 0.109,0.097c0.027,0.043 0.04,0.094 0.04,0.153Zm-0.299,-0.129c-0.023,0 -0.043,0.006 -0.058,0.019c-0.015,0.013 -0.025,0.031 -0.03,0.054l0.176,0c-0.005,-0.023 -0.015,-0.04 -0.03,-0.053c-0.015,-0.014 -0.035,-0.02 -0.058,-0.02Z" style="fill:#fff;fill-rule:nonzero;"/></g><g transform="matrix(171.346,0,0,171.346,-158.196,828.229)"><path d="M0.415,-0.557c0.048,0 0.092,0.012 0.132,0.035c0.041,0.023 0.073,0.056 0.096,0.099c0.024,0.043 0.036,0.093 0.036,0.15c-0,0.057 -0.012,0.107 -0.036,0.15c-0.023,0.043 -0.055,0.076 -0.096,0.099c-0.04,0.023 -0.084,0.034 -0.132,0.034c-0.061,0 -0.107,-0.016 -0.139,-0.047l0,0.231l-0.226,0l-0,-0.741l0.215,-0l0,0.045c0.033,-0.037 0.083,-0.055 0.15,-0.055Zm-0.054,0.391c0.026,-0 0.047,-0.009 0.064,-0.028c0.017,-0.019 0.025,-0.045 0.025,-0.079c-0,-0.034 -0.008,-0.061 -0.025,-0.08c-0.017,-0.019 -0.038,-0.028 -0.064,-0.028c-0.026,-0 -0.047,0.009 -0.064,0.028c-0.017,0.019 -0.025,0.046 -0.025,0.08c0,0.034 0.008,0.06 0.025,0.079c0.017,0.019 0.038,0.028 0.064,0.028Z" style="fill:#fff;fill-rule:nonzero;"/></g><g transform="matrix(171.346,0,0,171.346,-38.2538,828.229)"><path d="M0.265,-0.488c0.04,-0.046 0.099,-0.069 0.177,-0.069l0,0.2c-0.018,-0.003 -0.035,-0.004 -0.05,-0.004c-0.077,-0 -0.116,0.039 -0.116,0.118l0,0.243l-0.226,-0l-0,-0.547l0.215,-0l0,0.059Z" style="fill:#fff;fill-rule:nonzero;"/></g><g transform="matrix(171.346,0,0,171.346,39.0231,828.229)"><path d="M0.339,0.01c-0.061,0 -0.115,-0.012 -0.164,-0.037c-0.048,-0.024 -0.086,-0.058 -0.113,-0.101c-0.027,-0.043 -0.041,-0.091 -0.041,-0.146c-0,-0.055 0.014,-0.103 0.041,-0.146c0.027,-0.043 0.065,-0.077 0.114,-0.101c0.048,-0.024 0.102,-0.036 0.163,-0.036c0.061,0 0.116,0.012 0.165,0.036c0.048,0.024 0.086,0.058 0.113,0.101c0.027,0.043 0.04,0.091 0.04,0.146c0,0.055 -0.013,0.104 -0.04,0.147c-0.027,0.043 -0.065,0.076 -0.113,0.101c-0.049,0.024 -0.104,0.036 -0.165,0.036Zm0,-0.176c0.026,0 0.047,-0.009 0.064,-0.028c0.017,-0.02 0.025,-0.046 0.025,-0.08c0,-0.034 -0.008,-0.06 -0.025,-0.079c-0.017,-0.019 -0.038,-0.028 -0.064,-0.028c-0.026,0 -0.047,0.009 -0.064,0.028c-0.017,0.019 -0.025,0.045 -0.025,0.079c0,0.034 0.008,0.061 0.025,0.08c0.017,0.019 0.038,0.028 0.064,0.028Z" style="fill:#fff;fill-rule:nonzero;"/></g><g transform="matrix(171.346,0,0,171.346,155.196,828.229)"><path d="M0.661,-0.547l0,0.438c0,0.104 -0.029,0.182 -0.087,0.235c-0.057,0.052 -0.139,0.078 -0.246,0.078c-0.055,0 -0.106,-0.006 -0.153,-0.017c-0.047,-0.012 -0.088,-0.029 -0.121,-0.051l0.076,-0.154c0.021,0.016 0.048,0.029 0.081,0.039c0.033,0.01 0.064,0.015 0.094,0.015c0.045,0 0.078,-0.01 0.099,-0.029c0.021,-0.019 0.031,-0.048 0.031,-0.085l-0,-0.01c-0.034,0.039 -0.084,0.058 -0.151,0.058c-0.047,0 -0.09,-0.011 -0.131,-0.032c-0.04,-0.022 -0.072,-0.053 -0.096,-0.093c-0.024,-0.041 -0.036,-0.087 -0.036,-0.139c-0,-0.052 0.012,-0.098 0.036,-0.138c0.024,-0.04 0.056,-0.071 0.096,-0.092c0.041,-0.022 0.084,-0.033 0.131,-0.033c0.075,0 0.129,0.024 0.162,0.072l-0,-0.062l0.215,0Zm-0.317,0.341c0.027,-0 0.049,-0.008 0.067,-0.024c0.017,-0.017 0.026,-0.038 0.026,-0.064c-0,-0.026 -0.009,-0.047 -0.027,-0.063c-0.017,-0.016 -0.039,-0.024 -0.066,-0.024c-0.027,0 -0.05,0.008 -0.068,0.024c-0.017,0.016 -0.026,0.037 -0.026,0.063c0,0.026 0.009,0.047 0.027,0.064c0.018,0.016 0.04,0.024 0.067,0.024Z" style="fill:#fff;fill-rule:nonzero;"/></g><g transform="matrix(171.346,0,0,171.346,277.022,828.229)"><path d="M0.265,-0.488c0.04,-0.046 0.099,-0.069 0.177,-0.069l0,0.2c-0.018,-0.003 -0.035,-0.004 -0.05,-0.004c-0.077,-0 -0.116,0.039 -0.116,0.118l0,0.243l-0.226,-0l-0,-0.547l0.215,-0l0,0.059Z" style="fill:#fff;fill-rule:nonzero;"/></g><g transform="matrix(171.346,0,0,171.346,354.299,828.229)"><path d="M0.295,-0.557c0.096,0 0.169,0.022 0.22,0.065c0.051,0.043 0.076,0.109 0.076,0.198l0,0.294l-0.21,0l0,-0.072c-0.026,0.055 -0.078,0.082 -0.155,0.082c-0.043,0 -0.08,-0.007 -0.111,-0.022c-0.03,-0.015 -0.053,-0.036 -0.069,-0.061c-0.015,-0.026 -0.023,-0.055 -0.023,-0.087c0,-0.054 0.021,-0.095 0.062,-0.123c0.041,-0.028 0.104,-0.042 0.188,-0.042l0.091,0c-0.007,-0.043 -0.042,-0.064 -0.103,-0.064c-0.025,0 -0.05,0.004 -0.075,0.012c-0.025,0.007 -0.047,0.018 -0.065,0.031l-0.072,-0.149c0.031,-0.019 0.069,-0.034 0.114,-0.045c0.044,-0.011 0.088,-0.017 0.132,-0.017Zm-0.001,0.431c0.016,0 0.03,-0.004 0.043,-0.013c0.013,-0.009 0.022,-0.022 0.028,-0.039l0,-0.038l-0.056,0c-0.046,0 -0.069,0.015 -0.069,0.046c0,0.013 0.005,0.023 0.015,0.032c0.009,0.008 0.022,0.012 0.039,0.012Z" style="fill:#fff;fill-rule:nonzero;"/></g><g transform="matrix(171.346,0,0,171.346,463.789,828.229)"><path d="M0.774,-0.557c0.066,0 0.119,0.02 0.158,0.061c0.04,0.041 0.06,0.102 0.06,0.184l0,0.312l-0.226,0l0,-0.273c0,-0.063 -0.02,-0.094 -0.061,-0.094c-0.021,0 -0.039,0.008 -0.052,0.024c-0.013,0.016 -0.019,0.041 -0.019,0.076l0,0.267l-0.226,0l0,-0.273c0,-0.063 -0.02,-0.094 -0.061,-0.094c-0.021,0 -0.039,0.008 -0.052,0.024c-0.013,0.016 -0.019,0.041 -0.019,0.076l0,0.267l-0.226,0l-0,-0.547l0.215,0l0,0.051c0.041,-0.041 0.092,-0.061 0.155,-0.061c0.037,0 0.07,0.007 0.099,0.021c0.029,0.013 0.053,0.034 0.072,0.062c0.022,-0.027 0.049,-0.047 0.08,-0.061c0.031,-0.015 0.066,-0.022 0.103,-0.022Z" style="fill:#fff;fill-rule:nonzero;"/></g><g transform="matrix(171.346,0,0,171.346,641.989,828.229)"><path d="M0.774,-0.557c0.066,0 0.119,0.02 0.158,0.061c0.04,0.041 0.06,0.102 0.06,0.184l0,0.312l-0.226,0l0,-0.273c0,-0.063 -0.02,-0.094 -0.061,-0.094c-0.021,0 -0.039,0.008 -0.052,0.024c-0.013,0.016 -0.019,0.041 -0.019,0.076l0,0.267l-0.226,0l0,-0.273c0,-0.063 -0.02,-0.094 -0.061,-0.094c-0.021,0 -0.039,0.008 -0.052,0.024c-0.013,0.016 -0.019,0.041 -0.019,0.076l0,0.267l-0.226,0l-0,-0.547l0.215,0l0,0.051c0.041,-0.041 0.092,-0.061 0.155,-0.061c0.037,0 0.07,0.007 0.099,0.021c0.029,0.013 0.053,0.034 0.072,0.062c0.022,-0.027 0.049,-0.047 0.08,-0.061c0.031,-0.015 0.066,-0.022 0.103,-0.022Z" style="fill:#fff;fill-rule:nonzero;"/></g><g transform="matrix(171.346,0,0,171.346,821.902,828.229)"><path d="M0.632,-0.274c0,0.003 -0.001,0.021 -0.003,0.053l-0.38,0c0.008,0.021 0.021,0.037 0.04,0.048c0.019,0.011 0.042,0.016 0.07,0.016c0.024,0 0.044,-0.003 0.061,-0.009c0.016,-0.006 0.034,-0.016 0.053,-0.031l0.118,0.119c-0.053,0.059 -0.133,0.088 -0.239,0.088c-0.066,0 -0.124,-0.012 -0.174,-0.036c-0.05,-0.025 -0.089,-0.059 -0.116,-0.102c-0.027,-0.043 -0.041,-0.092 -0.041,-0.146c0,-0.055 0.014,-0.103 0.041,-0.146c0.027,-0.043 0.064,-0.077 0.111,-0.101c0.047,-0.024 0.099,-0.036 0.158,-0.036c0.055,0 0.106,0.011 0.152,0.033c0.045,0.022 0.082,0.054 0.109,0.097c0.027,0.043 0.04,0.094 0.04,0.153Zm-0.299,-0.129c-0.023,0 -0.043,0.006 -0.058,0.019c-0.015,0.013 -0.025,0.031 -0.03,0.054l0.176,0c-0.005,-0.023 -0.015,-0.04 -0.03,-0.053c-0.015,-0.014 -0.035,-0.02 -0.058,-0.02Z" style="fill:#fff;fill-rule:nonzero;"/></g><g transform="matrix(171.346,0,0,171.346,933.79,828.229)"><path d="M0.265,-0.488c0.04,-0.046 0.099,-0.069 0.177,-0.069l0,0.2c-0.018,-0.003 -0.035,-0.004 -0.05,-0.004c-0.077,-0 -0.116,0.039 -0.116,0.118l0,0.243l-0.226,-0l-0,-0.547l0.215,-0l0,0.059Z" style="fill:#fff;fill-rule:nonzero;"/></g><g transform="matrix(171.346,0,0,171.346,1011.92,828.229)"><path d="M0.264,0.01c-0.047,0 -0.093,-0.005 -0.138,-0.015c-0.045,-0.01 -0.082,-0.023 -0.11,-0.039l0.062,-0.149c0.025,0.015 0.055,0.027 0.09,0.036c0.035,0.009 0.068,0.013 0.101,0.013c0.026,-0 0.044,-0.002 0.054,-0.007c0.011,-0.004 0.016,-0.01 0.016,-0.019c0,-0.009 -0.007,-0.015 -0.02,-0.018c-0.013,-0.003 -0.034,-0.007 -0.063,-0.01c-0.045,-0.005 -0.083,-0.012 -0.114,-0.02c-0.031,-0.009 -0.059,-0.025 -0.083,-0.049c-0.023,-0.024 -0.035,-0.058 -0.035,-0.103c-0,-0.035 0.011,-0.067 0.032,-0.095c0.021,-0.028 0.053,-0.05 0.095,-0.067c0.043,-0.017 0.094,-0.025 0.153,-0.025c0.041,0 0.082,0.004 0.121,0.012c0.04,0.007 0.074,0.018 0.102,0.033l-0.062,0.149c-0.048,-0.027 -0.101,-0.04 -0.158,-0.04c-0.049,-0 -0.074,0.009 -0.074,0.026c-0,0.009 0.007,0.015 0.02,0.018c0.013,0.004 0.034,0.008 0.063,0.011c0.045,0.005 0.082,0.012 0.113,0.021c0.031,0.009 0.059,0.025 0.083,0.049c0.023,0.024 0.035,0.058 0.035,0.103c0,0.034 -0.011,0.065 -0.032,0.093c-0.021,0.028 -0.053,0.05 -0.096,0.067c-0.043,0.017 -0.094,0.025 -0.155,0.025Z" style="fill:#fff;fill-rule:nonzero;"/></g><g transform="matrix(171.346,0,0,171.346,1160.14,828.229)"><path d="M0.648,-0.547l0,0.547l-0.215,-0l-0,-0.052c-0.02,0.021 -0.043,0.036 -0.07,0.047c-0.027,0.01 -0.055,0.015 -0.085,0.015c-0.069,0 -0.125,-0.021 -0.167,-0.064c-0.042,-0.042 -0.063,-0.106 -0.063,-0.191l-0,-0.302l0.226,-0l0,0.263c0,0.037 0.006,0.064 0.018,0.08c0.012,0.016 0.03,0.024 0.053,0.024c0.022,-0 0.04,-0.009 0.055,-0.027c0.015,-0.017 0.022,-0.045 0.022,-0.083l-0,-0.257l0.226,-0Z" style="fill:#fff;fill-rule:nonzero;"/></g><g transform="matrix(171.346,0,0,171.346,1279.74,828.229)"><path d="M0.43,-0.557c0.067,0 0.122,0.02 0.163,0.061c0.041,0.041 0.061,0.102 0.061,0.184l0,0.312l-0.226,0l0,-0.273c0,-0.063 -0.022,-0.094 -0.067,-0.094c-0.025,0 -0.046,0.009 -0.061,0.027c-0.016,0.017 -0.024,0.045 -0.024,0.083l0,0.257l-0.226,0l0,-0.547l0.215,0l0,0.054c0.021,-0.021 0.046,-0.037 0.074,-0.048c0.028,-0.011 0.058,-0.016 0.091,-0.016Z" style="fill:#fff;fill-rule:nonzero;"/></g><g transform="matrix(171.346,0,0,171.346,1400.02,828.229)"><path d="M0.05,-0.547l0.226,0l0,0.547l-0.226,-0l-0,-0.547Zm0.113,-0.044c-0.041,0 -0.074,-0.011 -0.099,-0.032c-0.025,-0.022 -0.037,-0.05 -0.037,-0.083c-0,-0.033 0.012,-0.061 0.037,-0.082c0.025,-0.022 0.058,-0.033 0.099,-0.033c0.041,0 0.074,0.01 0.099,0.031c0.025,0.021 0.037,0.047 0.037,0.08c0,0.035 -0.012,0.063 -0.037,0.086c-0.025,0.022 -0.058,0.033 -0.099,0.033Z" style="fill:#fff;fill-rule:nonzero;"/></g><g transform="matrix(171.346,0,0,171.346,1455.88,828.229)"><path d="M0.339,0.01c-0.061,0 -0.115,-0.012 -0.164,-0.037c-0.048,-0.024 -0.086,-0.058 -0.113,-0.101c-0.027,-0.043 -0.041,-0.091 -0.041,-0.146c-0,-0.055 0.014,-0.103 0.041,-0.146c0.027,-0.043 0.065,-0.077 0.114,-0.101c0.048,-0.024 0.102,-0.036 0.163,-0.036c0.061,0 0.116,0.012 0.165,0.036c0.048,0.024 0.086,0.058 0.113,0.101c0.027,0.043 0.04,0.091 0.04,0.146c0,0.055 -0.013,0.104 -0.04,0.147c-0.027,0.043 -0.065,0.076 -0.113,0.101c-0.049,0.024 -0.104,0.036 -0.165,0.036Zm0,-0.176c0.026,0 0.047,-0.009 0.064,-0.028c0.017,-0.02 0.025,-0.046 0.025,-0.08c0,-0.034 -0.008,-0.06 -0.025,-0.079c-0.017,-0.019 -0.038,-0.028 -0.064,-0.028c-0.026,0 -0.047,0.009 -0.064,0.028c-0.017,0.019 -0.025,0.045 -0.025,0.079c0,0.034 0.008,0.061 0.025,0.08c0.017,0.019 0.038,0.028 0.064,0.028Z" style="fill:#fff;fill-rule:nonzero;"/></g><g transform="matrix(171.346,0,0,171.346,1572.05,828.229)"><path d="M0.43,-0.557c0.067,0 0.122,0.02 0.163,0.061c0.041,0.041 0.061,0.102 0.061,0.184l0,0.312l-0.226,0l0,-0.273c0,-0.063 -0.022,-0.094 -0.067,-0.094c-0.025,0 -0.046,0.009 -0.061,0.027c-0.016,0.017 -0.024,0.045 -0.024,0.083l0,0.257l-0.226,0l0,-0.547l0.215,0l0,0.054c0.021,-0.021 0.046,-0.037 0.074,-0.048c0.028,-0.011 0.058,-0.016 0.091,-0.016Z" style="fill:#fff;fill-rule:nonzero;"/></g></g></g></g></svg>