<?xml version="1.0" encoding="UTF-8" standalone="no"?><!DOCTYPE svg PUBLIC "-//W3C//DTD SVG 1.1//EN" "http://www.w3.org/Graphics/SVG/1.1/DTD/svg11.dtd"><svg width="100%" height="100%" viewBox="0 0 128 97" version="1.1" xmlns="http://www.w3.org/2000/svg" xmlns:xlink="http://www.w3.org/1999/xlink" xml:space="preserve" xmlns:serif="http://www.serif.com/" style="fill-rule:evenodd;clip-rule:evenodd;stroke-linejoin:round;stroke-miterlimit:2;"><g id="图层_2"><g id="Discord_Logos"><g id="Discord_Logo_-_Large_-_White"><path d="M107.7,8.07c-8.353,-3.824 -17.172,-6.537 -26.23,-8.07c-1.24,2.216 -2.361,4.496 -3.36,6.83c-9.649,-1.454 -19.461,-1.454 -29.11,-0c-0.999,-2.334 -2.121,-4.614 -3.36,-6.83c-9.064,1.546 -17.888,4.265 -26.25,8.09c-16.6,24.56 -21.1,48.51 -18.85,72.12c9.721,7.182 20.603,12.645 32.17,16.15c2.605,-3.503 4.91,-7.22 6.89,-11.11c-3.762,-1.405 -7.392,-3.138 -10.85,-5.18c0.91,-0.66 1.8,-1.34 2.66,-2c20.358,9.574 43.962,9.574 64.32,-0c0.87,0.71 1.76,1.39 2.66,2c-3.464,2.045 -7.102,3.782 -10.87,5.19c1.978,3.889 4.283,7.602 6.89,11.1c11.577,-3.491 22.467,-8.951 32.19,-16.14c2.64,-27.38 -4.51,-51.11 -18.9,-72.15Zm-65.25,57.62c-6.27,-0 -11.45,-5.69 -11.45,-12.69c0,-7 5,-12.74 11.43,-12.74c6.43,-0 11.57,5.74 11.46,12.74c-0.11,7 -5.05,12.69 -11.44,12.69Zm42.24,-0c-6.28,-0 -11.44,-5.69 -11.44,-12.69c0,-7 5,-12.74 11.44,-12.74c6.44,-0 11.54,5.74 11.43,12.74c-0.11,7 -5.04,12.69 -11.43,12.69Z" style="fill:#fff;fill-rule:nonzero;"/></g></g></g></svg>