<?xml version="1.0" encoding="UTF-8" standalone="no"?><!DOCTYPE svg PUBLIC "-//W3C//DTD SVG 1.1//EN" "http://www.w3.org/Graphics/SVG/1.1/DTD/svg11.dtd"><svg width="100%" height="100%" viewBox="0 0 432 216" version="1.1" xmlns="http://www.w3.org/2000/svg" xmlns:xlink="http://www.w3.org/1999/xlink" xml:space="preserve" xmlns:serif="http://www.serif.com/" style="fill-rule:evenodd;clip-rule:evenodd;stroke-linecap:round;stroke-linejoin:round;stroke-miterlimit:1.5;"><rect id="Artboard1" x="0" y="0" width="432" height="216" style="fill:none;"/><clipPath id="_clip1"><rect x="0" y="0" width="432" height="216"/></clipPath><g clip-path="url(#_clip1)"><g><rect x="0" y="-4.926" width="432" height="225.853" style="fill:none;"/><clipPath id="_clip2"><rect x="0" y="-4.926" width="432" height="225.853"/></clipPath><g clip-path="url(#_clip2)"><g><g><path d="M-1.403,-5.67l39.818,39.818" style="fill:none;stroke:#fff;stroke-width:1.83px;"/><path d="M246.625,64.846c2.292,2.291 6.013,2.291 8.305,-0c2.292,-2.292 2.292,-6.013 0,-8.305c-2.292,-2.292 -6.013,-2.292 -8.305,0c-2.291,2.292 -2.291,6.013 0,8.305Z" style="fill:#fff;"/><path d="M91.506,34.148l-94.667,-94.667" style="fill:none;stroke:#fff;stroke-width:1.83px;"/><path d="M35.161,-75.287l109.436,109.435" style="fill:none;stroke:#fff;stroke-width:1.83px;"/><path d="M79.953,-83.586l144.279,144.279" style="fill:none;stroke:#fff;stroke-width:1.83px;"/><path d="M38.415,34.148l-13.272,13.273l13.272,13.272l13.273,-13.272" style="fill:none;stroke:#fff;stroke-width:1.83px;"/><path d="M118.051,60.693l-26.545,26.546" style="fill:none;stroke:#fff;stroke-width:1.83px;"/><path d="M171.142,60.693l-53.091,53.091" style="fill:none;stroke:#fff;stroke-width:1.83px;"/><path d="M224.232,60.693l-79.635,79.636" style="fill:none;stroke:#fff;stroke-width:1.83px;"/><path d="M38.415,34.148l106.182,106.181" style="fill:none;stroke:#fff;stroke-width:1.83px;"/><path d="M91.506,34.148l66.363,66.363" style="fill:none;stroke:#fff;stroke-width:1.83px;"/><path d="M144.597,34.148l39.817,39.818" style="fill:none;stroke:#fff;stroke-width:1.83px;"/><path d="M38.415,60.693l39.818,39.818l13.273,-13.272" style="fill:none;stroke:#fff;stroke-width:1.83px;"/><path d="M78.233,100.511l26.546,26.546l13.272,-13.273" style="fill:none;stroke:#fff;stroke-width:1.83px;"/><path d="M104.779,127.057l26.545,26.545l13.273,-13.273" style="fill:none;stroke:#fff;stroke-width:1.83px;"/><path d="M91.506,34.148l-13.273,13.273l92.909,92.908" style="fill:none;stroke:#fff;stroke-width:1.83px;"/><path d="M104.779,47.421l-13.273,13.272" style="fill:none;stroke:#fff;stroke-width:1.83px;"/><path d="M144.597,34.148l-13.273,13.273l66.363,66.363" style="fill:none;stroke:#fff;stroke-width:1.83px;"/><path d="M144.597,60.693l13.272,-13.272" style="fill:none;stroke:#fff;stroke-width:1.83px;"/><path d="M197.687,34.148l-13.273,13.273l39.818,39.818" style="fill:none;stroke:#fff;stroke-width:1.83px;"/><path d="M210.96,47.421l-13.273,13.272" style="fill:none;stroke:#fff;stroke-width:1.83px;"/><path d="M131.324,153.602l13.273,13.273l106.181,-106.182" style="fill:none;stroke:#fff;stroke-width:1.83px;"/><g><path d="M33.053,61.536l6.205,-6.205l1.432,7.607l-7.637,-1.402Z" style="fill:#fff;stroke:#fff;stroke-width:1.83px;"/></g><g><path d="M51.039,41.865c0.376,3.761 2.442,5.831 6.205,6.205l-8.961,2.786l2.756,-8.991Z" style="fill:#fff;stroke:#fff;stroke-width:1.83px;"/></g><g><path d="M90.857,81.683c0.376,3.761 2.442,5.831 6.204,6.205l-8.96,2.785l2.756,-8.99Z" style="fill:#fff;stroke:#fff;stroke-width:1.83px;"/></g><g><path d="M117.402,108.228c0.376,3.761 2.442,5.832 6.205,6.205l-8.961,2.786l2.756,-8.991Z" style="fill:#fff;stroke:#fff;stroke-width:1.83px;"/></g><g><path d="M143.947,134.774c0.376,3.76 2.442,5.831 6.205,6.205l-8.961,2.785l2.756,-8.99Z" style="fill:#fff;stroke:#fff;stroke-width:1.83px;"/></g><g><path d="M157.22,94.956c0.376,3.76 2.442,5.831 6.205,6.205l-8.961,2.785l2.756,-8.99Z" style="fill:#fff;stroke:#fff;stroke-width:1.83px;"/></g><g><path d="M130.675,68.41c0.376,3.761 2.442,5.832 6.204,6.205l-8.96,2.786l2.756,-8.991Z" style="fill:#fff;stroke:#fff;stroke-width:1.83px;"/></g><g><path d="M104.129,41.865c0.376,3.761 2.442,5.831 6.205,6.205l-8.961,2.786l2.756,-8.991Z" style="fill:#fff;stroke:#fff;stroke-width:1.83px;"/></g><g><path d="M157.212,41.873c0.376,3.76 2.442,5.831 6.205,6.205l-8.961,2.785l2.756,-8.99Z" style="fill:#fff;stroke:#fff;stroke-width:1.83px;"/></g><g><path d="M183.757,68.418c0.377,3.761 2.442,5.831 6.205,6.205l-8.961,2.786l2.756,-8.991Z" style="fill:#fff;stroke:#fff;stroke-width:1.83px;"/></g><g><path d="M210.311,41.865c0.376,3.761 2.442,5.831 6.204,6.205l-8.96,2.786l2.756,-8.991Z" style="fill:#fff;stroke:#fff;stroke-width:1.83px;"/></g><g><path d="M72.871,101.354l6.205,-6.205l1.432,7.607l-7.637,-1.402Z" style="fill:#fff;stroke:#fff;stroke-width:1.83px;"/></g><g><path d="M99.416,127.899l6.205,-6.204l1.432,7.607l-7.637,-1.403Z" style="fill:#fff;stroke:#fff;stroke-width:1.83px;"/></g><g><path d="M125.962,154.445l6.205,-6.205l1.431,7.607l-7.636,-1.402Z" style="fill:#fff;stroke:#fff;stroke-width:1.83px;"/></g><g><path d="M171.985,145.691l-6.205,-6.204l7.607,-1.432l-1.402,7.636Z" style="fill:#fff;stroke:#fff;stroke-width:1.83px;"/></g><g><path d="M198.53,119.146l-6.205,-6.205l7.607,-1.431l-1.402,7.636Z" style="fill:#fff;stroke:#fff;stroke-width:1.83px;"/></g><g><path d="M225.075,92.601l-6.205,-6.205l7.607,-1.432l-1.402,7.637Z" style="fill:#fff;stroke:#fff;stroke-width:1.83px;"/></g><g><path d="M86.144,61.536l6.205,-6.205l1.431,7.607l-7.636,-1.402Z" style="fill:#fff;stroke:#fff;stroke-width:1.83px;"/></g><g><path d="M112.689,88.081l6.205,-6.204l1.432,7.607l-7.637,-1.403Z" style="fill:#fff;stroke:#fff;stroke-width:1.83px;"/></g><g><path d="M139.234,114.627l6.205,-6.205l1.432,7.607l-7.637,-1.402Z" style="fill:#fff;stroke:#fff;stroke-width:1.83px;"/></g><g><path d="M165.78,88.081l6.205,-6.204l1.431,7.607l-7.636,-1.403Z" style="fill:#fff;stroke:#fff;stroke-width:1.83px;"/></g><g><path d="M139.234,61.536l6.205,-6.205l1.432,7.607l-7.637,-1.402Z" style="fill:#fff;stroke:#fff;stroke-width:1.83px;"/></g><g><path d="M192.325,61.536l6.205,-6.205l1.432,7.607l-7.637,-1.402Z" style="fill:#fff;stroke:#fff;stroke-width:1.83px;"/></g><g><path d="M131.324,73.966l-6.636,6.636l13.272,13.273" style="fill:none;stroke:#fff;stroke-width:1.83px;"/><path d="M124.688,80.602l-6.637,6.637" style="fill:none;stroke:#fff;stroke-width:1.83px;"/></g><g><path d="M157.869,100.511l-6.636,6.637l13.273,13.272" style="fill:none;stroke:#fff;stroke-width:1.83px;"/><path d="M151.233,107.148l-6.636,6.636" style="fill:none;stroke:#fff;stroke-width:1.83px;"/></g><g><path d="M184.414,73.966l-6.636,6.636l13.273,13.273" style="fill:none;stroke:#fff;stroke-width:1.83px;"/><path d="M177.778,80.602l-6.636,6.637" style="fill:none;stroke:#fff;stroke-width:1.83px;"/></g><g><path d="M128.939,102.896l4.718,-4.718" style="fill:none;stroke:#000;stroke-width:1.83px;"/><path d="M137.96,107.148l-13.272,-13.273" style="fill:none;stroke:#fff;stroke-width:1.83px;"/><path d="M124.688,107.148l4.328,-4.328c-0,-0 -2.316,-2.324 -0.011,-4.628c2.304,-2.304 4.655,-0.017 4.655,-0.017l4.3,-4.3" style="fill:none;stroke:#fff;stroke-width:1.83px;"/></g><g><path d="M155.484,129.442l4.718,-4.718" style="fill:none;stroke:#000;stroke-width:1.83px;"/><path d="M164.506,133.693l-13.273,-13.273" style="fill:none;stroke:#fff;stroke-width:1.83px;"/><path d="M151.233,133.693l4.328,-4.328c-0,-0 -2.315,-2.323 -0.011,-4.628c2.304,-2.304 4.656,-0.017 4.656,-0.017l4.3,-4.3" style="fill:none;stroke:#fff;stroke-width:1.83px;"/></g><g><path d="M142.212,89.624l4.718,-4.718" style="fill:none;stroke:#000;stroke-width:1.83px;"/><path d="M151.233,93.875l-13.273,-13.273" style="fill:none;stroke:#fff;stroke-width:1.83px;"/><path d="M137.96,93.875l4.328,-4.328c0,-0 -2.315,-2.323 -0.011,-4.628c2.304,-2.304 4.656,-0.017 4.656,-0.017l4.3,-4.3" style="fill:none;stroke:#fff;stroke-width:1.83px;"/></g><g><path d="M102.394,76.351l4.718,-4.718" style="fill:none;stroke:#000;stroke-width:1.83px;"/><path d="M111.415,80.602l-13.273,-13.272" style="fill:none;stroke:#fff;stroke-width:1.83px;"/><path d="M98.142,80.602l4.328,-4.328c0,0 -2.315,-2.323 -0.011,-4.627c2.304,-2.304 4.656,-0.017 4.656,-0.017l4.3,-4.3" style="fill:none;stroke:#fff;stroke-width:1.83px;"/></g><g><path d="M182.03,102.896l4.718,-4.718" style="fill:none;stroke:#000;stroke-width:1.83px;"/><path d="M191.051,107.148l-13.273,-13.273" style="fill:none;stroke:#fff;stroke-width:1.83px;"/><path d="M177.778,107.148l4.328,-4.328c0,-0 -2.315,-2.324 -0.011,-4.628c2.304,-2.304 4.656,-0.017 4.656,-0.017l4.3,-4.3" style="fill:none;stroke:#fff;stroke-width:1.83px;"/></g><g><path d="M208.575,76.351l4.718,-4.718" style="fill:none;stroke:#000;stroke-width:1.83px;"/><path d="M217.596,80.602l-13.273,-13.272" style="fill:none;stroke:#fff;stroke-width:1.83px;"/><path d="M204.323,80.602l4.329,-4.328c-0,0 -2.316,-2.323 -0.012,-4.627c2.305,-2.304 4.656,-0.017 4.656,-0.017l4.3,-4.3" style="fill:none;stroke:#fff;stroke-width:1.83px;"/></g></g><g><path d="M34.263,38.3c2.292,2.292 6.013,2.292 8.305,0c2.291,-2.291 2.291,-6.013 -0,-8.304c-2.292,-2.292 -6.013,-2.292 -8.305,-0c-2.292,2.291 -2.292,6.013 -0,8.304Z" style="stroke:#fff;stroke-width:1.83px;"/><path d="M87.354,38.3c2.291,2.292 6.012,2.292 8.304,0c2.292,-2.291 2.292,-6.013 0,-8.304c-2.292,-2.292 -6.013,-2.292 -8.304,-0c-2.292,2.291 -2.292,6.013 -0,8.304Z" style="stroke:#fff;stroke-width:1.83px;"/><path d="M140.444,38.3c2.292,2.292 6.013,2.292 8.305,0c2.292,-2.291 2.292,-6.013 -0,-8.304c-2.292,-2.292 -6.013,-2.292 -8.305,-0c-2.292,2.291 -2.292,6.013 0,8.304Z" style="stroke:#fff;stroke-width:1.83px;"/><path d="M193.535,38.3c2.292,2.292 6.013,2.292 8.304,0c2.292,-2.291 2.292,-6.013 0,-8.304c-2.291,-2.292 -6.012,-2.292 -8.304,-0c-2.292,2.291 -2.292,6.013 -0,8.304Z" style="stroke:#fff;stroke-width:1.83px;"/></g></g><g><g><path d="M448.542,235.124l-39.818,-39.818" style="fill:none;stroke:#fff;stroke-width:1.83px;"/><path d="M200.514,164.609c-2.292,-2.292 -6.013,-2.292 -8.305,-0c-2.292,2.291 -2.292,6.013 0,8.304c2.292,2.292 6.013,2.292 8.305,0c2.292,-2.291 2.292,-6.013 -0,-8.304Z" style="fill:#fff;"/><path d="M355.633,195.306l94.667,94.667" style="fill:none;stroke:#fff;stroke-width:1.83px;"/><path d="M411.978,304.741l-109.435,-109.435" style="fill:none;stroke:#fff;stroke-width:1.83px;"/><path d="M367.186,313.04l-144.279,-144.279" style="fill:none;stroke:#fff;stroke-width:1.83px;"/><path d="M408.724,195.306l13.273,-13.272l-13.273,-13.273l-13.273,13.273" style="fill:none;stroke:#fff;stroke-width:1.83px;"/><path d="M329.088,168.761l26.545,-26.545" style="fill:none;stroke:#fff;stroke-width:1.83px;"/><path d="M275.997,168.761l53.091,-53.091" style="fill:none;stroke:#fff;stroke-width:1.83px;"/><path d="M222.907,168.761l79.636,-79.636" style="fill:none;stroke:#fff;stroke-width:1.83px;"/><path d="M408.724,195.306l-106.181,-106.181" style="fill:none;stroke:#fff;stroke-width:1.83px;"/><path d="M355.633,195.306l-66.363,-66.363" style="fill:none;stroke:#fff;stroke-width:1.83px;"/><path d="M302.543,195.306l-39.818,-39.818" style="fill:none;stroke:#fff;stroke-width:1.83px;"/><path d="M408.724,168.761l-39.818,-39.818l-13.273,13.273" style="fill:none;stroke:#fff;stroke-width:1.83px;"/><path d="M368.906,128.943l-26.545,-26.545l-13.273,13.272" style="fill:none;stroke:#fff;stroke-width:1.83px;"/><path d="M342.361,102.398l-26.546,-26.546l-13.272,13.273" style="fill:none;stroke:#fff;stroke-width:1.83px;"/><path d="M355.633,195.306l13.273,-13.272l-92.909,-92.909" style="fill:none;stroke:#fff;stroke-width:1.83px;"/><path d="M342.361,182.034l13.272,-13.273" style="fill:none;stroke:#fff;stroke-width:1.83px;"/><path d="M302.543,195.306l13.272,-13.272l-66.363,-66.364" style="fill:none;stroke:#fff;stroke-width:1.83px;"/><path d="M302.543,168.761l-13.273,13.273" style="fill:none;stroke:#fff;stroke-width:1.83px;"/><path d="M249.452,195.306l13.273,-13.272l-39.818,-39.818" style="fill:none;stroke:#fff;stroke-width:1.83px;"/><path d="M236.179,182.034l13.273,-13.273" style="fill:none;stroke:#fff;stroke-width:1.83px;"/><path d="M315.815,75.852l-13.272,-13.272l-106.182,106.181" style="fill:none;stroke:#fff;stroke-width:1.83px;"/><g><path d="M414.086,167.918l-6.205,6.205l-1.431,-7.607l7.636,1.402Z" style="fill:#fff;stroke:#fff;stroke-width:1.83px;"/></g><g><path d="M396.101,187.589c-0.377,-3.76 -2.442,-5.831 -6.205,-6.204l8.961,-2.786l-2.756,8.99Z" style="fill:#fff;stroke:#fff;stroke-width:1.83px;"/></g><g><path d="M356.283,147.771c-0.377,-3.76 -2.442,-5.831 -6.205,-6.204l8.961,-2.786l-2.756,8.99Z" style="fill:#fff;stroke:#fff;stroke-width:1.83px;"/></g><g><path d="M329.737,121.226c-0.376,-3.76 -2.442,-5.831 -6.205,-6.205l8.961,-2.785l-2.756,8.99Z" style="fill:#fff;stroke:#fff;stroke-width:1.83px;"/></g><g><path d="M303.192,94.681c-0.376,-3.761 -2.442,-5.831 -6.205,-6.205l8.961,-2.786l-2.756,8.991Z" style="fill:#fff;stroke:#fff;stroke-width:1.83px;"/></g><g><path d="M289.919,134.499c-0.376,-3.761 -2.442,-5.831 -6.205,-6.205l8.961,-2.786l-2.756,8.991Z" style="fill:#fff;stroke:#fff;stroke-width:1.83px;"/></g><g><path d="M316.465,161.044c-0.376,-3.76 -2.442,-5.831 -6.205,-6.205l8.961,-2.785l-2.756,8.99Z" style="fill:#fff;stroke:#fff;stroke-width:1.83px;"/></g><g><path d="M343.01,187.589c-0.376,-3.76 -2.442,-5.831 -6.205,-6.204l8.961,-2.786l-2.756,8.99Z" style="fill:#fff;stroke:#fff;stroke-width:1.83px;"/></g><g><path d="M289.927,187.581c-0.376,-3.76 -2.442,-5.831 -6.205,-6.204l8.961,-2.786l-2.756,8.99Z" style="fill:#fff;stroke:#fff;stroke-width:1.83px;"/></g><g><path d="M263.382,161.036c-0.376,-3.76 -2.442,-5.831 -6.205,-6.205l8.961,-2.785l-2.756,8.99Z" style="fill:#fff;stroke:#fff;stroke-width:1.83px;"/></g><g><path d="M236.829,187.589c-0.376,-3.76 -2.442,-5.831 -6.205,-6.204l8.961,-2.786l-2.756,8.99Z" style="fill:#fff;stroke:#fff;stroke-width:1.83px;"/></g><g><path d="M374.268,128.1l-6.205,6.205l-1.431,-7.607l7.636,1.402Z" style="fill:#fff;stroke:#fff;stroke-width:1.83px;"/></g><g><path d="M347.723,101.555l-6.205,6.205l-1.432,-7.607l7.637,1.402Z" style="fill:#fff;stroke:#fff;stroke-width:1.83px;"/></g><g><path d="M321.177,75.01l-6.204,6.205l-1.432,-7.607l7.636,1.402Z" style="fill:#fff;stroke:#fff;stroke-width:1.83px;"/></g><g><path d="M275.155,83.763l6.204,6.205l-7.606,1.432l1.402,-7.637Z" style="fill:#fff;stroke:#fff;stroke-width:1.83px;"/></g><g><path d="M248.609,110.308l6.205,6.205l-7.607,1.432l1.402,-7.637Z" style="fill:#fff;stroke:#fff;stroke-width:1.83px;"/></g><g><path d="M222.064,136.854l6.205,6.204l-7.607,1.432l1.402,-7.636Z" style="fill:#fff;stroke:#fff;stroke-width:1.83px;"/></g><g><path d="M360.995,167.918l-6.204,6.205l-1.432,-7.607l7.636,1.402Z" style="fill:#fff;stroke:#fff;stroke-width:1.83px;"/></g><g><path d="M334.45,141.373l-6.205,6.205l-1.431,-7.607l7.636,1.402Z" style="fill:#fff;stroke:#fff;stroke-width:1.83px;"/></g><g><path d="M307.905,114.828l-6.205,6.204l-1.432,-7.607l7.637,1.403Z" style="fill:#fff;stroke:#fff;stroke-width:1.83px;"/></g><g><path d="M281.359,141.373l-6.204,6.205l-1.432,-7.607l7.636,1.402Z" style="fill:#fff;stroke:#fff;stroke-width:1.83px;"/></g><g><path d="M307.905,167.918l-6.205,6.205l-1.432,-7.607l7.637,1.402Z" style="fill:#fff;stroke:#fff;stroke-width:1.83px;"/></g><g><path d="M254.814,167.918l-6.205,6.205l-1.431,-7.607l7.636,1.402Z" style="fill:#fff;stroke:#fff;stroke-width:1.83px;"/></g><g><path d="M315.815,155.488l6.637,-6.636l-13.273,-13.273" style="fill:none;stroke:#fff;stroke-width:1.83px;"/><path d="M322.452,148.852l6.636,-6.636" style="fill:none;stroke:#fff;stroke-width:1.83px;"/></g><g><path d="M289.27,128.943l6.636,-6.636l-13.272,-13.273" style="fill:none;stroke:#fff;stroke-width:1.83px;"/><path d="M295.906,122.307l6.637,-6.637" style="fill:none;stroke:#fff;stroke-width:1.83px;"/></g><g><path d="M262.725,155.488l6.636,-6.636l-13.273,-13.273" style="fill:none;stroke:#fff;stroke-width:1.83px;"/><path d="M269.361,148.852l6.636,-6.636" style="fill:none;stroke:#fff;stroke-width:1.83px;"/></g><g><path d="M318.2,126.558l-4.718,4.718" style="fill:none;stroke:#000;stroke-width:1.83px;"/><path d="M309.179,122.307l13.273,13.272" style="fill:none;stroke:#fff;stroke-width:1.83px;"/><path d="M322.452,122.307l-4.328,4.328c-0,-0 2.315,2.323 0.011,4.627c-2.305,2.305 -4.656,0.018 -4.656,0.018l-4.3,4.299" style="fill:none;stroke:#fff;stroke-width:1.83px;"/></g><g><path d="M291.655,100.013l-4.718,4.718" style="fill:none;stroke:#000;stroke-width:1.83px;"/><path d="M282.634,95.761l13.272,13.273" style="fill:none;stroke:#fff;stroke-width:1.83px;"/><path d="M295.906,95.761l-4.328,4.329c0,-0 2.316,2.323 0.011,4.627c-2.304,2.304 -4.655,0.017 -4.655,0.017l-4.3,4.3" style="fill:none;stroke:#fff;stroke-width:1.83px;"/></g><g><path d="M304.928,139.831l-4.718,4.718" style="fill:none;stroke:#000;stroke-width:1.83px;"/><path d="M295.906,135.579l13.273,13.273" style="fill:none;stroke:#fff;stroke-width:1.83px;"/><path d="M309.179,135.579l-4.328,4.329c-0,-0 2.315,2.323 0.011,4.627c-2.304,2.304 -4.656,0.017 -4.656,0.017l-4.3,4.3" style="fill:none;stroke:#fff;stroke-width:1.83px;"/></g><g><path d="M344.746,153.104l-4.718,4.717" style="fill:none;stroke:#000;stroke-width:1.83px;"/><path d="M335.724,148.852l13.273,13.273" style="fill:none;stroke:#fff;stroke-width:1.83px;"/><path d="M348.997,148.852l-4.328,4.328c-0,0 2.315,2.323 0.011,4.628c-2.304,2.304 -4.656,0.017 -4.656,0.017l-4.3,4.3" style="fill:none;stroke:#fff;stroke-width:1.83px;"/></g><g><path d="M265.11,126.558l-4.718,4.718" style="fill:none;stroke:#000;stroke-width:1.83px;"/><path d="M256.088,122.307l13.273,13.272" style="fill:none;stroke:#fff;stroke-width:1.83px;"/><path d="M269.361,122.307l-4.328,4.328c-0,-0 2.315,2.323 0.011,4.627c-2.304,2.305 -4.656,0.018 -4.656,0.018l-4.3,4.299" style="fill:none;stroke:#fff;stroke-width:1.83px;"/></g><g><path d="M238.564,153.104l-4.718,4.717" style="fill:none;stroke:#000;stroke-width:1.83px;"/><path d="M229.543,148.852l13.273,13.273" style="fill:none;stroke:#fff;stroke-width:1.83px;"/><path d="M242.816,148.852l-4.328,4.328c-0,0 2.315,2.323 0.011,4.628c-2.304,2.304 -4.656,0.017 -4.656,0.017l-4.3,4.3" style="fill:none;stroke:#fff;stroke-width:1.83px;"/></g></g><g><path d="M412.876,191.154c-2.291,-2.292 -6.013,-2.292 -8.304,0c-2.292,2.292 -2.292,6.013 -0,8.305c2.291,2.291 6.013,2.291 8.304,-0c2.292,-2.292 2.292,-6.013 0,-8.305Z" style="stroke:#fff;stroke-width:1.83px;"/><path d="M359.786,191.154c-2.292,-2.292 -6.013,-2.292 -8.305,0c-2.292,2.292 -2.292,6.013 0,8.305c2.292,2.291 6.013,2.291 8.305,-0c2.291,-2.292 2.291,-6.013 -0,-8.305Z" style="stroke:#fff;stroke-width:1.83px;"/><path d="M306.695,191.154c-2.292,-2.292 -6.013,-2.292 -8.305,0c-2.291,2.292 -2.291,6.013 0,8.305c2.292,2.291 6.013,2.291 8.305,-0c2.292,-2.292 2.292,-6.013 0,-8.305Z" style="stroke:#fff;stroke-width:1.83px;"/><path d="M253.604,191.154c-2.291,-2.292 -6.013,-2.292 -8.304,0c-2.292,2.292 -2.292,6.013 -0,8.305c2.291,2.291 6.013,2.291 8.304,-0c2.292,-2.292 2.292,-6.013 0,-8.305Z" style="stroke:#fff;stroke-width:1.83px;"/></g></g></g><g><path d="M83.224,183.201c-13.751,0 -26.14,-2.88 -37.166,-8.641c-11.026,-5.761 -19.667,-13.813 -25.923,-24.158c-6.257,-10.344 -9.385,-22.083 -9.385,-35.215c0,-13.132 3.128,-24.87 9.385,-35.215c6.256,-10.344 14.897,-18.397 25.923,-24.157c11.026,-5.761 23.415,-8.642 37.166,-8.642c12.637,0 23.91,2.23 33.821,6.69c9.911,4.46 18.088,10.902 24.53,19.327l-27.689,24.715c-8.053,-10.159 -17.53,-15.238 -28.432,-15.238c-9.168,0 -16.539,2.942 -22.114,8.827c-5.575,5.885 -8.362,13.782 -8.362,23.693c-0,9.911 2.787,17.809 8.362,23.694c5.575,5.884 12.946,8.827 22.114,8.827c10.902,-0 20.379,-5.08 28.432,-15.238l27.689,24.715c-6.442,8.424 -14.619,14.866 -24.53,19.326c-9.911,4.46 -21.184,6.69 -33.821,6.69Z" style="fill:#fff;fill-rule:nonzero;"/><clipPath id="_clip3"><path d="M83.224,183.201c-13.751,0 -26.14,-2.88 -37.166,-8.641c-11.026,-5.761 -19.667,-13.813 -25.923,-24.158c-6.257,-10.344 -9.385,-22.083 -9.385,-35.215c0,-13.132 3.128,-24.87 9.385,-35.215c6.256,-10.344 14.897,-18.397 25.923,-24.157c11.026,-5.761 23.415,-8.642 37.166,-8.642c12.637,0 23.91,2.23 33.821,6.69c9.911,4.46 18.088,10.902 24.53,19.327l-27.689,24.715c-8.053,-10.159 -17.53,-15.238 -28.432,-15.238c-9.168,0 -16.539,2.942 -22.114,8.827c-5.575,5.885 -8.362,13.782 -8.362,23.693c-0,9.911 2.787,17.809 8.362,23.694c5.575,5.884 12.946,8.827 22.114,8.827c10.902,-0 20.379,-5.08 28.432,-15.238l27.689,24.715c-6.442,8.424 -14.619,14.866 -24.53,19.326c-9.911,4.46 -21.184,6.69 -33.821,6.69Z" clip-rule="nonzero"/></clipPath><g clip-path="url(#_clip3)"><path d="M85.362,65.498c28.838,0 52.251,23.567 52.251,49.689c-0,26.123 -23.413,49.69 -52.251,49.69c-28.838,-0 -52.251,-16.784 -52.251,-49.69c-0,-32.906 23.413,-49.689 52.251,-49.689Z" style="fill:none;stroke:#000;stroke-width:16.53px;stroke-linecap:butt;stroke-linejoin:miter;"/><path d="M85.362,65.498c28.838,0 52.251,23.567 52.251,49.689c-0,26.123 -23.413,49.69 -52.251,49.69c-28.838,-0 -52.251,-16.784 -52.251,-49.69c-0,-32.906 23.413,-49.689 52.251,-49.689Z" style="fill:none;stroke:#fff;stroke-width:4.26px;stroke-linecap:butt;stroke-linejoin:miter;"/></g><path d="M83.224,186.212c-14.269,0 -27.12,-3.006 -38.56,-8.983c-11.531,-6.025 -20.563,-14.451 -27.106,-25.269c-6.534,-10.803 -9.819,-23.058 -9.819,-36.773c0,-13.715 3.285,-25.969 9.819,-36.773c6.543,-10.818 15.575,-19.244 27.106,-25.268c11.44,-5.978 24.291,-8.984 38.56,-8.984c13.1,0 24.783,2.332 35.057,6.955c10.379,4.671 18.939,11.421 25.686,20.244l1.695,2.217l-32.152,28.699l-1.984,-2.501c-7.399,-9.335 -16.055,-14.098 -26.072,-14.098c-8.252,0 -14.91,2.59 -19.928,7.887c-5.081,5.363 -7.537,12.59 -7.537,21.622c0,9.033 2.456,16.26 7.537,21.623c5.018,5.297 11.676,7.887 19.928,7.887c10.017,-0 18.673,-4.764 26.072,-14.098l1.984,-2.502l32.152,28.7l-1.695,2.217c-6.747,8.822 -15.307,15.573 -25.686,20.243c-10.274,4.624 -21.957,6.955 -35.057,6.955Zm0,-3.011c12.637,0 23.91,-2.23 33.821,-6.69c9.911,-4.46 18.088,-10.902 24.53,-19.326l-27.689,-24.715c-8.053,10.158 -17.53,15.238 -28.432,15.238c-9.168,-0 -16.539,-2.943 -22.114,-8.827c-5.575,-5.885 -8.362,-13.783 -8.362,-23.694c-0,-9.911 2.787,-17.808 8.362,-23.693c5.575,-5.885 12.946,-8.827 22.114,-8.827c10.902,0 20.379,5.079 28.432,15.238l27.689,-24.715c-6.442,-8.425 -14.619,-14.867 -24.53,-19.327c-9.911,-4.46 -21.184,-6.69 -33.821,-6.69c-13.751,0 -26.14,2.881 -37.166,8.642c-11.026,5.76 -19.667,13.813 -25.923,24.157c-6.257,10.345 -9.385,22.083 -9.385,35.215c0,13.132 3.128,24.871 9.385,35.215c6.256,10.345 14.897,18.397 25.923,24.158c11.026,5.761 23.415,8.641 37.166,8.641Z"/><path d="M216.836,50.147c12.017,-0 22.486,1.982 31.405,5.946c8.92,3.965 15.796,9.663 20.628,17.097c4.831,7.433 7.247,16.105 7.247,26.016c-0,9.911 -2.416,18.583 -7.247,26.016c-4.832,7.433 -11.708,13.132 -20.628,17.097c-8.919,3.964 -19.388,5.946 -31.405,5.946l-18.769,0l0,31.963l-43.856,-0l0,-130.081l62.625,-0Zm-2.787,64.297c5.946,-0 10.406,-1.332 13.379,-3.995c2.974,-2.664 4.46,-6.411 4.46,-11.243c0,-4.832 -1.486,-8.579 -4.46,-11.243c-2.973,-2.663 -7.433,-3.995 -13.379,-3.995l-15.982,-0l0,30.476l15.982,-0Z" style="fill:#fff;fill-rule:nonzero;"/><clipPath id="_clip4"><path d="M216.836,50.147c12.017,-0 22.486,1.982 31.405,5.946c8.92,3.965 15.796,9.663 20.628,17.097c4.831,7.433 7.247,16.105 7.247,26.016c-0,9.911 -2.416,18.583 -7.247,26.016c-4.832,7.433 -11.708,13.132 -20.628,17.097c-8.919,3.964 -19.388,5.946 -31.405,5.946l-18.769,0l0,31.963l-43.856,-0l0,-130.081l62.625,-0Zm-2.787,64.297c5.946,-0 10.406,-1.332 13.379,-3.995c2.974,-2.664 4.46,-6.411 4.46,-11.243c0,-4.832 -1.486,-8.579 -4.46,-11.243c-2.973,-2.663 -7.433,-3.995 -13.379,-3.995l-15.982,-0l0,30.476l15.982,-0Z" clip-rule="nonzero"/></clipPath><g clip-path="url(#_clip4)"><path d="M175.435,180.228l-0.346,-114.191c46.727,0 80.279,-3.138 80.279,34.738c-0,35.65 -42.563,31.783 -79.933,31.783" style="fill:none;stroke:#000;stroke-width:17.14px;stroke-linecap:square;stroke-linejoin:miter;"/><path d="M175.435,180.228l-0.346,-114.191c46.727,0 80.279,-3.138 80.279,34.738c-0,35.65 -42.563,31.783 -79.933,31.783" style="fill:none;stroke:#fff;stroke-width:4.41px;stroke-linecap:square;stroke-linejoin:miter;"/></g><path d="M216.836,47.136c12.487,-0 23.36,2.086 32.628,6.206c9.49,4.217 16.789,10.299 21.929,18.207c5.138,7.904 7.734,17.118 7.734,27.657c0,10.539 -2.596,19.753 -7.734,27.657c-5.14,7.908 -12.439,13.99 -21.929,18.207c-9.268,4.12 -20.141,6.206 -32.628,6.206c0,0 -15.758,0 -15.758,0l0,31.963l-49.878,0l0,-136.103l65.636,-0Zm0,3.011l-62.625,-0l0,130.081l43.856,-0l0,-31.963l18.769,0c12.017,0 22.486,-1.982 31.405,-5.946c8.92,-3.965 15.796,-9.664 20.628,-17.097c4.831,-7.433 7.247,-16.105 7.247,-26.016c-0,-9.911 -2.416,-18.583 -7.247,-26.016c-4.832,-7.434 -11.708,-13.132 -20.628,-17.097c-8.919,-3.964 -19.388,-5.946 -31.405,-5.946Zm-2.787,64.297l-15.982,-0l0,-30.476l15.982,-0c5.946,-0 10.406,1.332 13.379,3.995c2.974,2.664 4.46,6.411 4.46,11.243c0,4.832 -1.486,8.579 -4.46,11.243c-2.973,2.663 -7.433,3.995 -13.379,3.995Zm-0,-3.011c5.033,-0 8.854,-0.973 11.37,-3.227c2.37,-2.123 3.458,-5.149 3.458,-9c0,-3.852 -1.088,-6.877 -3.458,-9c-2.516,-2.255 -6.337,-3.227 -11.37,-3.227l-12.971,-0c0,-0 0,24.454 0,24.454l12.971,-0Z"/><path d="M350.82,183.201c-19.946,0 -35.494,-5.389 -46.644,-16.167c-11.149,-10.778 -16.724,-25.892 -16.724,-45.343l-0,-71.544l43.856,-0l-0,70.244c-0,9.539 1.703,16.477 5.11,20.813c3.407,4.336 8.331,6.504 14.773,6.504c6.443,-0 11.367,-2.168 14.774,-6.504c3.407,-4.336 5.11,-11.274 5.11,-20.813l0,-70.244l43.113,-0l-0,71.544c-0,19.451 -5.575,34.565 -16.725,45.343c-11.15,10.778 -26.697,16.167 -46.643,16.167Z" style="fill:#fff;fill-rule:nonzero;"/><clipPath id="_clip5"><path d="M350.82,183.201c-19.946,0 -35.494,-5.389 -46.644,-16.167c-11.149,-10.778 -16.724,-25.892 -16.724,-45.343l-0,-71.544l43.856,-0l-0,70.244c-0,9.539 1.703,16.477 5.11,20.813c3.407,4.336 8.331,6.504 14.773,6.504c6.443,-0 11.367,-2.168 14.774,-6.504c3.407,-4.336 5.11,-11.274 5.11,-20.813l0,-70.244l43.113,-0l-0,71.544c-0,19.451 -5.575,34.565 -16.725,45.343c-11.15,10.778 -26.697,16.167 -46.643,16.167Z" clip-rule="nonzero"/></clipPath><g clip-path="url(#_clip5)"><path d="M393.788,50.147l0,77.966c0,21.672 -18.67,39.267 -41.666,39.267c-22.996,0 -41.666,-17.595 -41.666,-39.267l0,-77.966" style="fill:none;stroke:#000;stroke-width:16.54px;stroke-linecap:square;stroke-linejoin:miter;"/><path d="M393.788,50.147l0,77.966c0,21.672 -18.67,39.267 -41.666,39.267c-22.996,0 -41.666,-17.595 -41.666,-39.267l0,-77.966" style="fill:none;stroke:#fff;stroke-width:4.26px;stroke-linecap:square;stroke-linejoin:miter;"/></g><path d="M350.82,186.212c-20.857,0 -37.077,-5.743 -48.736,-17.013c-11.692,-11.302 -17.643,-27.112 -17.643,-47.508l-0,-74.555l49.878,-0l-0,73.255c-0,8.667 1.371,15.013 4.467,18.952c2.851,3.63 7.013,5.354 12.405,5.354c5.393,-0 9.555,-1.724 12.406,-5.354c3.096,-3.939 4.467,-10.285 4.467,-18.952l0,-73.255l49.135,-0l0,74.555c0,20.396 -5.951,36.206 -17.643,47.508c-11.659,11.27 -27.879,17.013 -48.736,17.013Zm-0,-3.011c19.946,0 35.493,-5.389 46.643,-16.167c11.15,-10.778 16.725,-25.892 16.725,-45.343l-0,-71.544l-43.113,-0l0,70.244c0,9.539 -1.703,16.477 -5.11,20.813c-3.407,4.336 -8.331,6.504 -14.774,6.504c-6.442,-0 -11.366,-2.168 -14.773,-6.504c-3.407,-4.336 -5.11,-11.274 -5.11,-20.813l-0,-70.244l-43.856,-0l-0,71.544c-0,19.451 5.575,34.565 16.724,45.343c11.15,10.778 26.698,16.167 46.644,16.167Z"/></g></g></g></svg>